<svg width="243" height="50" viewBox="0 0 243 50" fill="none" xmlns="http://www.w3.org/2000/svg">
<path fill-rule="evenodd" clip-rule="evenodd" d="M42.4174 15.7424L33.8537 24.062H17.6628V41.9251L8.83142 50L0 41.9251V15.7424C0 11.297 3.83586 7.66736 8.5192 7.66736H33.8537L42.4174 15.7424Z" fill="#1A1A1A"/>
<path fill-rule="evenodd" clip-rule="evenodd" d="M50.0001 8.89071L43.9787 14.5595L34.5229 5.832H8.78699C7.62729 5.832 6.5122 5.99508 5.48633 6.32135C6.64599 2.6917 10.5711 0 14.7191 0H40.3658L50.0001 8.89071Z" fill="#F94444"/>
<path fill-rule="evenodd" clip-rule="evenodd" d="M24.5759 25.6936V35.563L19.625 40.0493V25.6936H24.5759Z" fill="#F94444"/>
<path d="M51.85 42.3C49.3667 42.3 47.425 41.6083 46.025 40.225C44.625 38.8417 43.925 36.8667 43.925 34.3V24.5H47.975V34.15C47.975 35.8167 48.3167 37.0167 49 37.75C49.6833 38.4833 50.6417 38.85 51.875 38.85C53.1083 38.85 54.0667 38.4833 54.75 37.75C55.4333 37.0167 55.775 35.8167 55.775 34.15V24.5H59.775V34.3C59.775 36.8667 59.075 38.8417 57.675 40.225C56.275 41.6083 54.3333 42.3 51.85 42.3ZM69.5271 42.3C68.1271 42.3 66.7855 42.1167 65.5021 41.75C64.2188 41.3667 63.1855 40.875 62.4021 40.275L63.7771 37.225C64.5271 37.7583 65.4105 38.2 66.4271 38.55C67.4605 38.8833 68.5021 39.05 69.5521 39.05C70.3521 39.05 70.9938 38.975 71.4771 38.825C71.9771 38.6583 72.3438 38.4333 72.5771 38.15C72.8105 37.8667 72.9271 37.5417 72.9271 37.175C72.9271 36.7083 72.7438 36.3417 72.3771 36.075C72.0105 35.7917 71.5271 35.5667 70.9271 35.4C70.3271 35.2167 69.6605 35.05 68.9271 34.9C68.2105 34.7333 67.4855 34.5333 66.7521 34.3C66.0355 34.0667 65.3771 33.7667 64.7771 33.4C64.1771 33.0333 63.6855 32.55 63.3021 31.95C62.9355 31.35 62.7521 30.5833 62.7521 29.65C62.7521 28.65 63.0188 27.7417 63.5521 26.925C64.1021 26.0917 64.9188 25.4333 66.0021 24.95C67.1021 24.45 68.4771 24.2 70.1271 24.2C71.2271 24.2 72.3105 24.3333 73.3771 24.6C74.4438 24.85 75.3855 25.2333 76.2021 25.75L74.9521 28.825C74.1355 28.3583 73.3188 28.0167 72.5021 27.8C71.6855 27.5667 70.8855 27.45 70.1021 27.45C69.3188 27.45 68.6771 27.5417 68.1771 27.725C67.6771 27.9083 67.3188 28.15 67.1021 28.45C66.8855 28.7333 66.7771 29.0667 66.7771 29.45C66.7771 29.9 66.9605 30.2667 67.3271 30.55C67.6938 30.8167 68.1771 31.0333 68.7771 31.2C69.3771 31.3667 70.0355 31.5333 70.7521 31.7C71.4855 31.8667 72.2105 32.0583 72.9271 32.275C73.6605 32.4917 74.3271 32.7833 74.9271 33.15C75.5271 33.5167 76.0105 34 76.3771 34.6C76.7605 35.2 76.9521 35.9583 76.9521 36.875C76.9521 37.8583 76.6771 38.7583 76.1271 39.575C75.5771 40.3917 74.7521 41.05 73.6521 41.55C72.5688 42.05 71.1938 42.3 69.5271 42.3ZM88.0945 42.3C86.7445 42.3 85.4862 42.0833 84.3195 41.65C83.1695 41.2 82.1695 40.5667 81.3195 39.75C80.4695 38.9333 79.8029 37.975 79.3195 36.875C78.8529 35.775 78.6195 34.5667 78.6195 33.25C78.6195 31.9333 78.8529 30.725 79.3195 29.625C79.8029 28.525 80.4695 27.5667 81.3195 26.75C82.1862 25.9333 83.1945 25.3083 84.3445 24.875C85.4945 24.425 86.7529 24.2 88.1195 24.2C89.6362 24.2 91.0029 24.4667 92.2195 25C93.4529 25.5167 94.4862 26.2833 95.3195 27.3L92.7195 29.7C92.1195 29.0167 91.4529 28.5083 90.7195 28.175C89.9862 27.825 89.1862 27.65 88.3195 27.65C87.5029 27.65 86.7529 27.7833 86.0695 28.05C85.3862 28.3167 84.7945 28.7 84.2945 29.2C83.7945 29.7 83.4029 30.2917 83.1195 30.975C82.8529 31.6583 82.7195 32.4167 82.7195 33.25C82.7195 34.0833 82.8529 34.8417 83.1195 35.525C83.4029 36.2083 83.7945 36.8 84.2945 37.3C84.7945 37.8 85.3862 38.1833 86.0695 38.45C86.7529 38.7167 87.5029 38.85 88.3195 38.85C89.1862 38.85 89.9862 38.6833 90.7195 38.35C91.4529 38 92.1195 37.475 92.7195 36.775L95.3195 39.175C94.4862 40.1917 93.4529 40.9667 92.2195 41.5C91.0029 42.0333 89.6279 42.3 88.0945 42.3ZM95.4371 42L103.237 24.5H107.237L115.062 42H110.812L104.412 26.55H106.012L99.5871 42H95.4371ZM99.3371 38.25L100.412 35.175H109.412L110.512 38.25H99.3371ZM119.624 42V27.8H114.024V24.5H129.274V27.8H123.674V42H119.624ZM131.453 42V24.5H135.503V42H131.453ZM148.156 42.3C146.773 42.3 145.489 42.075 144.306 41.625C143.139 41.175 142.123 40.5417 141.256 39.725C140.406 38.9083 139.739 37.95 139.256 36.85C138.789 35.75 138.556 34.55 138.556 33.25C138.556 31.95 138.789 30.75 139.256 29.65C139.739 28.55 140.414 27.5917 141.281 26.775C142.148 25.9583 143.164 25.325 144.331 24.875C145.498 24.425 146.764 24.2 148.131 24.2C149.514 24.2 150.781 24.425 151.931 24.875C153.098 25.325 154.106 25.9583 154.956 26.775C155.823 27.5917 156.498 28.55 156.981 29.65C157.464 30.7333 157.706 31.9333 157.706 33.25C157.706 34.55 157.464 35.7583 156.981 36.875C156.498 37.975 155.823 38.9333 154.956 39.75C154.106 40.55 153.098 41.175 151.931 41.625C150.781 42.075 149.523 42.3 148.156 42.3ZM148.131 38.85C148.914 38.85 149.631 38.7167 150.281 38.45C150.948 38.1833 151.531 37.8 152.031 37.3C152.531 36.8 152.914 36.2083 153.181 35.525C153.464 34.8417 153.606 34.0833 153.606 33.25C153.606 32.4167 153.464 31.6583 153.181 30.975C152.914 30.2917 152.531 29.7 152.031 29.2C151.548 28.7 150.973 28.3167 150.306 28.05C149.639 27.7833 148.914 27.65 148.131 27.65C147.348 27.65 146.623 27.7833 145.956 28.05C145.306 28.3167 144.731 28.7 144.231 29.2C143.731 29.7 143.339 30.2917 143.056 30.975C142.789 31.6583 142.656 32.4167 142.656 33.25C142.656 34.0667 142.789 34.825 143.056 35.525C143.339 36.2083 143.723 36.8 144.206 37.3C144.706 37.8 145.289 38.1833 145.956 38.45C146.623 38.7167 147.348 38.85 148.131 38.85ZM160.75 42V24.5H164.1L174.425 37.1H172.8V24.5H176.8V42H173.475L163.125 29.4H164.75V42H160.75ZM182.14 42.2C181.474 42.2 180.899 41.975 180.415 41.525C179.949 41.0583 179.715 40.4667 179.715 39.75C179.715 39.0333 179.949 38.4583 180.415 38.025C180.899 37.575 181.474 37.35 182.14 37.35C182.824 37.35 183.399 37.575 183.865 38.025C184.332 38.4583 184.565 39.0333 184.565 39.75C184.565 40.4667 184.332 41.0583 183.865 41.525C183.399 41.975 182.824 42.2 182.14 42.2ZM193.562 42.2C192.112 42.2 190.82 41.9083 189.687 41.325C188.553 40.725 187.662 39.9 187.012 38.85C186.378 37.8 186.062 36.6083 186.062 35.275C186.062 33.925 186.378 32.7333 187.012 31.7C187.662 30.65 188.553 29.8333 189.687 29.25C190.82 28.65 192.112 28.35 193.562 28.35C194.978 28.35 196.212 28.65 197.262 29.25C198.312 29.8333 199.087 30.675 199.587 31.775L196.562 33.4C196.212 32.7667 195.77 32.3 195.237 32C194.72 31.7 194.153 31.55 193.537 31.55C192.87 31.55 192.27 31.7 191.737 32C191.203 32.3 190.778 32.725 190.462 33.275C190.162 33.825 190.012 34.4917 190.012 35.275C190.012 36.0583 190.162 36.725 190.462 37.275C190.778 37.825 191.203 38.25 191.737 38.55C192.27 38.85 192.87 39 193.537 39C194.153 39 194.72 38.8583 195.237 38.575C195.77 38.275 196.212 37.8 196.562 37.15L199.587 38.8C199.087 39.8833 198.312 40.725 197.262 41.325C196.212 41.9083 194.978 42.2 193.562 42.2ZM208.061 42.2C206.628 42.2 205.353 41.9 204.236 41.3C203.136 40.7 202.261 39.8833 201.611 38.85C200.978 37.8 200.661 36.6083 200.661 35.275C200.661 33.925 200.978 32.7333 201.611 31.7C202.261 30.65 203.136 29.8333 204.236 29.25C205.353 28.65 206.628 28.35 208.061 28.35C209.478 28.35 210.745 28.65 211.861 29.25C212.978 29.8333 213.853 30.6417 214.486 31.675C215.12 32.7083 215.436 33.9083 215.436 35.275C215.436 36.6083 215.12 37.8 214.486 38.85C213.853 39.8833 212.978 40.7 211.861 41.3C210.745 41.9 209.478 42.2 208.061 42.2ZM208.061 39C208.711 39 209.295 38.85 209.811 38.55C210.328 38.25 210.736 37.825 211.036 37.275C211.336 36.7083 211.486 36.0417 211.486 35.275C211.486 34.4917 211.336 33.825 211.036 33.275C210.736 32.725 210.328 32.3 209.811 32C209.295 31.7 208.711 31.55 208.061 31.55C207.411 31.55 206.828 31.7 206.311 32C205.795 32.3 205.378 32.725 205.061 33.275C204.761 33.825 204.611 34.4917 204.611 35.275C204.611 36.0417 204.761 36.7083 205.061 37.275C205.378 37.825 205.795 38.25 206.311 38.55C206.828 38.85 207.411 39 208.061 39ZM235.268 28.35C236.335 28.35 237.276 28.5667 238.093 29C238.926 29.4167 239.576 30.0667 240.043 30.95C240.526 31.8167 240.768 32.9333 240.768 34.3V42H236.868V34.9C236.868 33.8167 236.643 33.0167 236.193 32.5C235.743 31.9833 235.11 31.725 234.293 31.725C233.726 31.725 233.218 31.8583 232.768 32.125C232.318 32.375 231.968 32.7583 231.718 33.275C231.468 33.7917 231.343 34.45 231.343 35.25V42H227.443V34.9C227.443 33.8167 227.218 33.0167 226.768 32.5C226.335 31.9833 225.71 31.725 224.893 31.725C224.326 31.725 223.818 31.8583 223.368 32.125C222.918 32.375 222.568 32.7583 222.318 33.275C222.068 33.7917 221.943 34.45 221.943 35.25V42H218.043V28.55H221.768V32.225L221.068 31.15C221.535 30.2333 222.193 29.5417 223.043 29.075C223.91 28.5917 224.893 28.35 225.993 28.35C227.226 28.35 228.301 28.6667 229.218 29.3C230.151 29.9167 230.768 30.8667 231.068 32.15L229.693 31.775C230.143 30.725 230.86 29.8917 231.843 29.275C232.843 28.6583 233.985 28.35 235.268 28.35Z" fill="black"/>
</svg>
