<?xml version="1.0" encoding="UTF-8"?>
<!DOCTYPE svg PUBLIC "-//W3C//DTD SVG 1.1//EN" "http://www.w3.org/Graphics/SVG/1.1/DTD/svg11.dtd">
<!-- Creator: CorelDRAW 2019 (64-Bit) -->
<svg xmlns="http://www.w3.org/2000/svg" xml:space="preserve" width="1542px" height="720px" version="1.1" style="shape-rendering:geometricPrecision; text-rendering:geometricPrecision; image-rendering:optimizeQuality; fill-rule:evenodd; clip-rule:evenodd"
viewBox="0 0 1542 720"
 xmlns:xlink="http://www.w3.org/1999/xlink"
 xmlns:xodm="http://www.corel.com/coreldraw/odm/2003">
 <defs>
  <style type="text/css">
   <![CDATA[
    .fil2 {fill:#FEFEFE}
    .fil1 {fill:#FEFEFE}
    .fil0 {fill:#2F318B}
   ]]>
  </style>
 </defs>
 <g id="Layer_x0020_1">
  <metadata id="CorelCorpID_0Corel-Layer"/>
  <path class="fil0" d="M0 720l1542 0 0 -720 -1542 0 0 720zm1412.39 -100.8l-43.21 0 -17.99 39.6 -45.6 0 84 -176.4 22.8 0 22.8 0 86.4 176.4 -46.8 0 -19.21 -39.6 -43.19 0zm0 -94.8l-1.2 -1.2 -28.8 66 30 0 28.8 0 -28.8 -64.8zm-1391.99 -42l86.41 0c16.79,0 29.99,0 38.4,1.2 8.4,1.19 15.6,3.59 22.79,8.39 6.01,3.61 12.01,8.4 16.81,14.41 3.6,6 6,13.2 6,20.4 0,8.4 -2.4,15.59 -8.4,22.8 -4.8,7.2 -12.01,12 -21.6,15.6 13.2,3.59 22.79,8.39 30,15.6 7.2,8.4 10.8,16.79 10.8,27.59 0,7.2 -2.41,15.6 -7.21,22.81 -4.79,7.2 -10.8,13.2 -17.99,18 -8.41,4.8 -18,7.2 -30,8.4 -6,1.2 -19.2,1.2 -39.6,1.2 -3.6,0 -8.4,0 -12,0l-74.41 0 0 -176.4zm86.41 30c-4.81,0 -10.8,0 -16.8,0l-25.2 0 0 40.8 28.8 0c4.8,0 9.6,0 13.2,0 8.39,-1.2 14.4,-1.2 18,-1.2 7.2,-1.2 13.2,-2.4 18,-6 3.6,-3.61 6,-8.4 6,-14.41 0,-4.79 -2.4,-9.59 -6,-13.2 -3.6,-3.59 -8.4,-4.8 -15.6,-5.99 -3.61,0 -9.6,0 -20.4,0zm0 69.59c-2.4,0 -4.81,0 -7.21,0l-34.79 0 0 46.8 39.6 0c1.2,0 1.2,0 2.4,0 14.4,0 23.99,0 27.6,0 7.19,-1.19 12,-3.59 15.59,-7.2 4.8,-3.59 6.01,-9.59 6.01,-15.59 0,-4.8 -1.21,-9.6 -3.6,-13.2 -3.6,-3.6 -8.41,-6.01 -14.4,-8.41 -4.8,-1.19 -15.6,-2.4 -31.2,-2.4zm131.99 76.81l0 -176.4 159.6 0 0 30 -116.39 0 0 39.6 107.99 0 0 28.8 -107.99 0 0 47.99 119.99 0 0 30.01 -163.2 0zm288 -146.4c-2.4,0 -6,0 -9.6,0l-33.6 0 0 44.4 31.2 0c4.8,0 8.4,0 12,0 14.4,0 24,-1.21 27.6,-2.4 4.8,-1.2 9.6,-3.6 12,-7.21 3.6,-3.59 4.8,-7.19 4.8,-13.2 0,-5.99 -2.4,-10.79 -6,-14.39 -3.6,-3.61 -9.6,-6.01 -16.8,-7.2 -2.4,0 -9.6,0 -21.6,0zm0 82.79c-3.6,-3.59 -8.39,-5.99 -13.2,-8.4 -4.8,-1.19 -12,-1.19 -21.59,-1.19l-8.41 0 0 73.2 -44.39 0 0 -176.4 87.59 0 4.81 0c22.79,0 39.59,1.2 50.39,4.79 9.6,3.61 18,8.41 24,16.81 7.2,8.4 9.61,18 9.61,27.59 0,13.2 -4.81,24 -14.41,33.61 -9.6,8.39 -22.8,13.2 -42,15.6 9.6,4.8 16.8,9.6 22.8,15.6 6,4.8 14.4,14.39 25.2,28.8l26.4 33.6 -52.8 0 -31.2 -38.4c-10.8,-13.2 -17.99,-21.6 -22.8,-25.21zm118.8 6.01l43.2 -2.4c2.4,10.8 7.2,19.2 15.6,25.19 7.2,4.8 18,8.41 31.2,8.41 14.4,0 24,-2.4 31.2,-7.2 7.2,-4.8 10.8,-10.8 10.8,-18 0,-3.6 -1.19,-7.21 -4.8,-9.61 -2.4,-3.59 -7.2,-5.99 -15.61,-8.39 -4.79,-1.2 -16.79,-3.6 -34.79,-7.21 -22.8,-4.79 -39.6,-10.8 -49.21,-17.99 -13.19,-9.6 -19.19,-21.61 -19.19,-34.81 0,-9.59 2.4,-17.99 9.6,-25.19 6,-8.4 14.4,-14.41 26.4,-18 12,-4.8 26.4,-7.21 42,-7.21 27.6,0 48,6 61.2,15.61 14.4,9.6 21.6,22.8 21.6,38.4l-43.2 1.19c-2.4,-8.39 -6,-15.6 -12,-19.19 -6,-3.6 -15.6,-6 -27.6,-6 -13.2,0 -22.8,2.4 -30,6 -4.8,3.59 -7.2,7.2 -7.2,12 0,3.6 2.4,7.19 7.2,9.6 4.8,4.8 19.2,8.39 39.6,12 21.6,4.8 37.2,8.4 46.8,13.2 10.8,4.8 18,10.8 24,18 6,7.19 8.4,16.8 8.4,27.6 0,10.8 -2.4,20.4 -9.6,28.8 -7.2,8.4 -16.81,15.6 -28.8,19.19 -13.2,4.81 -28.8,7.21 -48,7.21 -26.39,0 -48,-4.8 -62.4,-15.6 -14.4,-10.8 -22.8,-25.21 -26.4,-45.6zm297.6 -76.8l-1.2 -1.2 -28.8 66 30 0 28.8 0 -28.8 -64.8zm0 94.8l-43.21 0 -17.99 39.6 -45.6 0 83.99 -176.4 22.81 0 22.8 0 86.4 176.4 -46.8 0 -19.21 -39.6 -43.19 0zm132 39.6l0 -176.4 64.79 0 39.6 119.99 38.4 -119.99 64.8 0 0 176.4 -39.59 0 0 -139.2 -43.21 139.2 -41.99 0 -42.01 -139.2 0 139.2 -40.79 0zm375.59 -224.41l43.2 0 0 -376.79 -44.4 0 1.2 376.79zm-1249.32 -102.16l199.56 -1.01 0 117.2 -47.44 0 0 -65.18 -121.57 0 -40.01 65.56 -69.6 0 75.6 -116.4 3.46 0.09 0 -0.26zm988.92 100.97l232.8 -361.2 -1.2 362.39 -49.2 0 0 -201.59 -128.4 208.8 -54 0 -5.99 0 5.99 -8.4zm-957.58 -154.8l-16.8 26.4 16.8 0 86.4 0 81.59 0 0 -246 -27.6 0 -53.99 86.4 -86.4 133.2zm86.4 -11.99l-24 1.19 50.39 -80.4 9.61 0 0 79.21 -36 0zm-86.4 -38.41l-145.2 220.8 -39.6 0 0 -27.61 184.8 -283.19 51.6 -79.2 34.8 0 24 0 -24 37.2 -86.4 132zm196.79 220.8l54 0 0 -390 -56.4 0 2.4 390zm219.6 -133.2l-88.81 138 72.01 0 16.8 -27.6 147.59 -248.4 98.41 0 20.4 0 37.21 -50.4 -57.61 1.2 -126 1.21 -120 185.99zm0 -50.4l-123.6 188.4 -30 0 0 -32.41 153.6 -241.19 2.4 -3.6 -2.4 0 -146.39 0 -3.61 -14.4 18 -31.2 132 -1.19 87.6 0 -87.6 135.59zm0 -161.99l-115.2 0 25.2 -44.41 90 0 246 0 108 0 -32.4 43.2 -75.6 0 -246 1.21zm246 347.99l-36 0 36 -55.2 205.19 -318 12 -19.2 6.01 0 0 272.4 -18.01 27.6 -35.99 56.4 0 -184.8 -141.6 220.8 -27.6 0zm0 -189.6l-108 163.2 1.2 26.4 36 0 70.8 -106.8 185.99 -285.6 -52.79 0 -133.2 202.8zm205.19 151.2l-19.2 28.8 19.2 0 50.41 0 20.4 -32.4 19.19 -28.8 211.2 -322.8 -62.4 0 -142.79 222.01 0 -15.61 -6.01 8.4 -19.19 28.8 -70.81 111.6zm70.81 -163.2l-22.81 36 -1.2 -226.8 24.01 0 19.19 0 6.01 0 0 153.6 -6.01 9.6 -19.19 27.6z"/>
  <path class="fil1" d="M1412.39 619.2l-43.21 0 -17.99 39.6 -45.6 0 84 -176.4 22.8 0 22.8 0 86.4 176.4 -46.8 0 -19.21 -39.6 -43.19 0zm0 -94.8l-1.2 -1.2 -28.8 66 30 0 28.8 0 -28.8 -64.8z"/>
  <path class="fil2" d="M1450.79 434.39l43.2 0 0 -376.79 -44.4 0 1.2 376.79zm-1249.32 -102.16l199.56 -1.01 0 117.2 -47.44 0 0 -65.18 -121.57 0 -40.01 65.56 -69.6 0 75.6 -116.4 3.46 0.09 0 -0.26zm988.92 100.97l232.8 -361.2 -1.2 362.39 -49.2 0 0 -201.59 -128.4 208.8 -54 0 -5.99 0 5.99 -8.4zm-957.58 -154.8l-16.8 26.4 16.8 0 86.4 0 81.59 0 0 -246 -27.6 0 -53.99 86.4 -86.4 133.2zm86.4 -11.99l-24 1.19 50.39 -80.4 9.61 0 0 79.21 -36 0zm-86.4 -38.41l-145.2 220.8 -39.6 0 0 -27.61 184.8 -283.19 51.6 -79.2 34.8 0 24 0 -24 37.2 -86.4 132zm196.79 220.8l54 0 0 -390 -56.4 0 2.4 390zm219.6 -133.2l-88.81 138 72.01 0 16.8 -27.6 147.59 -248.4 98.41 0 20.4 0 37.21 -50.4 -57.61 1.2 -126 1.21 -120 185.99zm0 -50.4l-123.6 188.4 -30 0 0 -32.41 153.6 -241.19 2.4 -3.6 -2.4 0 -146.39 0 -3.61 -14.4 18 -31.2 132 -1.19 87.6 0 -87.6 135.59zm0 -161.99l-115.2 0 25.2 -44.41 90 0 246 0 108 0 -32.4 43.2 -75.6 0 -246 1.21zm246 347.99l-36 0 36 -55.2 205.19 -318 12 -19.2 6.01 0 0 272.4 -18.01 27.6 -35.99 56.4 0 -184.8 -141.6 220.8 -27.6 0zm0 -189.6l-108 163.2 1.2 26.4 36 0 70.8 -106.8 185.99 -285.6 -52.79 0 -133.2 202.8zm205.19 151.2l-19.2 28.8 19.2 0 50.41 0 20.4 -32.4 19.19 -28.8 211.2 -322.8 -62.4 0 -142.79 222.01 0 -15.61 -6.01 8.4 -19.19 28.8 -70.81 111.6zm70.81 -163.2l-22.81 36 -1.2 -226.8 24.01 0 19.19 0 6.01 0 0 153.6 -6.01 9.6 -19.19 27.6z"/>
  <polygon class="fil2" points="1075.2,658.8 1075.2,482.4 1139.99,482.4 1179.59,602.39 1217.99,482.4 1282.79,482.4 1282.79,658.8 1243.19,658.8 1243.19,519.6 1199.99,658.8 1158,658.8 1115.99,519.6 1115.99,658.8 "/>
  <path class="fil2" d="M943.2 619.2l-43.21 0 -17.99 39.6 -45.6 0 83.99 -176.4 22.81 0 22.8 0 86.4 176.4 -46.8 0 -19.21 -39.6 -43.19 0zm0 -94.8l-1.2 -1.2 -28.8 66 30 0 28.8 0 -28.8 -64.8z"/>
  <path class="fil2" d="M645.6 601.2l43.2 -2.4c2.4,10.8 7.2,19.2 15.6,25.19 7.2,4.8 18,8.41 31.2,8.41 14.4,0 24,-2.4 31.2,-7.2 7.2,-4.8 10.8,-10.8 10.8,-18 0,-3.6 -1.2,-7.21 -4.8,-9.61 -2.4,-3.59 -7.2,-5.99 -15.6,-8.39 -4.79,-1.2 -16.8,-3.6 -34.8,-7.21 -22.8,-4.79 -39.6,-10.8 -49.2,-17.99 -13.2,-9.6 -19.2,-21.61 -19.2,-34.81 0,-9.59 2.4,-17.99 9.6,-25.19 6,-8.4 14.4,-14.41 26.4,-18 12,-4.8 26.4,-7.21 42,-7.21 27.6,0 48,6 61.2,15.61 14.4,9.6 21.6,22.8 21.6,38.4l-43.2 1.19c-2.4,-8.39 -6,-15.6 -12,-19.19 -6,-3.6 -15.6,-6 -27.6,-6 -13.2,0 -22.8,2.4 -30,6 -4.8,3.59 -7.2,7.2 -7.2,12 0,3.6 2.4,7.19 7.2,9.6 4.8,4.8 19.21,8.39 39.6,12 21.6,4.8 37.2,8.4 46.8,13.2 10.8,4.8 18,10.8 24,18 6,7.19 8.4,16.8 8.4,27.6 0,10.8 -2.4,20.4 -9.6,28.8 -7.2,8.4 -16.8,15.6 -28.8,19.19 -13.2,4.81 -28.8,7.21 -48,7.21 -26.4,0 -48,-4.8 -62.4,-15.6 -14.4,-10.8 -22.8,-25.21 -26.4,-45.6z"/>
  <path class="fil2" d="M526.8 595.19c-3.6,-3.59 -8.39,-5.99 -13.2,-8.4 -4.8,-1.19 -12,-1.19 -21.59,-1.19l-8.41 0 0 73.2 -44.39 0 0 -176.4 87.59 0 4.81 0c22.79,0 39.6,1.2 50.39,4.79 9.6,3.61 18,8.41 24,16.81 7.2,8.4 9.61,18 9.61,27.59 0,13.2 -4.81,24 -14.41,33.61 -9.6,8.39 -22.8,13.2 -42,15.6 9.6,4.8 16.8,9.6 22.8,15.6 6,4.8 14.4,14.39 25.2,28.8l26.4 33.6 -52.8 0 -31.2 -38.4c-10.8,-13.2 -17.99,-21.6 -22.8,-25.21zm0 -82.79c-2.4,0 -6,0 -9.6,0l-33.6 0 0 44.4 31.2 0c4.8,0 8.4,0 12,0 14.4,0 24,-1.21 27.6,-2.4 4.8,-1.2 9.6,-3.6 12,-7.21 3.6,-3.59 4.81,-7.19 4.81,-13.2 0,-5.99 -2.41,-10.79 -6.01,-14.39 -3.6,-3.61 -9.6,-6.01 -16.8,-7.2 -2.4,0 -9.6,0 -21.6,0z"/>
  <polygon class="fil2" points="238.8,658.8 238.8,482.4 398.4,482.4 398.4,512.4 282.01,512.4 282.01,552 390,552 390,580.8 282.01,580.8 282.01,628.79 402,628.79 402,658.8 "/>
  <path class="fil2" d="M20.4 482.4l86.41 0c16.79,0 29.99,0 38.4,1.2 8.4,1.19 15.6,3.59 22.79,8.39 6.01,3.61 12.01,8.4 16.81,14.41 3.6,6 6,13.2 6,20.4 0,8.4 -2.4,15.59 -8.4,22.8 -4.8,7.2 -12.01,12 -21.6,15.6 13.2,3.59 22.79,8.39 30,15.6 7.2,8.4 10.8,16.79 10.8,27.59 0,7.2 -2.41,15.6 -7.21,22.81 -4.79,7.2 -10.8,13.2 -17.99,18 -8.41,4.8 -18,7.2 -30,8.4 -6,1.2 -19.2,1.2 -39.6,1.2 -3.6,0 -8.4,0 -12,0l-74.41 0 0 -176.4zm86.41 30c-4.81,0 -10.8,0 -16.8,0l-25.2 0 0 40.8 28.8 0c4.8,0 9.6,0 13.2,0 8.39,-1.2 14.4,-1.2 18,-1.2 7.2,-1.2 13.2,-2.4 18,-6 3.6,-3.61 6,-8.4 6,-14.41 0,-4.79 -2.4,-9.59 -6,-13.2 -3.6,-3.59 -8.4,-4.8 -15.6,-5.99 -3.61,0 -9.6,0 -20.4,0zm0 69.59c-2.4,0 -4.81,0 -7.21,0l-34.79 0 0 46.8 39.6 0c1.2,0 1.2,0 2.4,0 14.4,0 23.99,0 27.6,0 7.19,-1.19 12,-3.59 15.59,-7.2 4.8,-3.59 6.01,-9.59 6.01,-15.59 0,-4.8 -1.21,-9.6 -3.6,-13.2 -3.6,-3.6 -8.41,-6.01 -14.4,-8.41 -4.8,-1.19 -15.6,-2.4 -31.2,-2.4z"/>
 </g>
</svg>
