<?xml version="1.0" encoding="UTF-8" standalone="no"?>
<!-- Created with Inkscape (http://www.inkscape.org/) -->

<svg
   xmlns:dc="http://purl.org/dc/elements/1.1/"
   xmlns:cc="http://creativecommons.org/ns#"
   xmlns:rdf="http://www.w3.org/1999/02/22-rdf-syntax-ns#"
   xmlns:svg="http://www.w3.org/2000/svg"
   xmlns="http://www.w3.org/2000/svg"
   xmlns:sodipodi="http://sodipodi.sourceforge.net/DTD/sodipodi-0.dtd"
   xmlns:inkscape="http://www.inkscape.org/namespaces/inkscape"
   width="88.327606mm"
   height="59.254002mm"
   viewBox="0 0 312.97183 209.95512"
   id="svg7784"
   version="1.1"
   inkscape:version="0.91 r13725"
   sodipodi:docname="PRIMA.svg">
  <defs
     id="defs7786" />
  <sodipodi:namedview
     id="base"
     pagecolor="#ffffff"
     bordercolor="#666666"
     borderopacity="1.0"
     inkscape:pageopacity="0.0"
     inkscape:pageshadow="2"
     inkscape:zoom="0.35"
     inkscape:cx="-215.65695"
     inkscape:cy="82.120415"
     inkscape:document-units="px"
     inkscape:current-layer="layer1"
     showgrid="false"
     fit-margin-top="0"
     fit-margin-left="0"
     fit-margin-right="0"
     fit-margin-bottom="0"
     inkscape:window-width="1366"
     inkscape:window-height="705"
     inkscape:window-x="-8"
     inkscape:window-y="-8"
     inkscape:window-maximized="1" />
  <metadata
     id="metadata7789">
    <rdf:RDF>
      <cc:Work
         rdf:about="">
        <dc:format>image/svg+xml</dc:format>
        <dc:type
           rdf:resource="http://purl.org/dc/dcmitype/StillImage" />
        <dc:title></dc:title>
      </cc:Work>
    </rdf:RDF>
  </metadata>
  <g
     inkscape:label="Layer 1"
     inkscape:groupmode="layer"
     id="layer1"
     transform="translate(-103.51409,-404.5275)">
    <path
       style="clip-rule:evenodd;fill:#004b92;fill-rule:evenodd;image-rendering:optimizeQuality;shape-rendering:geometricPrecision;text-rendering:geometricPrecision"
       inkscape:connector-curvature="0"
       id="path1038"
       d="m 111.18748,404.5275 297.61761,0 c 4.24097,0 7.68011,3.42638 7.68011,7.69784 l 7.1e-4,194.57645 c 0,4.23461 -3.4246,7.68047 -7.68224,7.68047 l -297.61619,3.6e-4 c -4.25374,0 -7.67339,-3.44622 -7.67339,-7.68083 l 3.6e-4,-194.57645 c 0,-4.27146 3.41894,-7.69784 7.67303,-7.69784 z"
       class="fil0" />
    <path
       style="clip-rule:evenodd;fill:#ffffff;fill-rule:evenodd;image-rendering:optimizeQuality;shape-rendering:geometricPrecision;text-rendering:geometricPrecision"
       inkscape:connector-curvature="0"
       id="path1040"
       d="m 270.16149,551.42593 -27.65374,15.56716 29.2128,14.82555 -1.55906,-8.30586 c 0,0 47.47075,0.78484 82.91163,-11.70036 35.36467,-12.52205 52.08944,-28.36063 55.9226,-40.29165 3.8505,-11.91402 3.02136,-28.67209 -29.90339,-43.25705 C 344.7513,463.00164 271.60929,462.37624 257.47469,463.35667 l -3.23186,1.74438 c 0,0 38.45906,1.12039 67.27854,6.14374 28.84642,4.99429 47.98843,10.65295 59.21894,17.00539 12.0189,6.77622 27.94181,18.18992 10.78725,37.40988 -6.56894,7.29744 -24.67914,17.58791 -47.52319,23.43012 -25.25741,7.13516 -45.74729,8.47523 -74.2004,9.47161 l 0.35752,-7.13586 z"
       class="fil1" />
    <path
       style="clip-rule:evenodd;fill:#e67015;fill-rule:evenodd;image-rendering:optimizeQuality;shape-rendering:geometricPrecision;text-rendering:geometricPrecision"
       inkscape:connector-curvature="0"
       id="path1042"
       d="m 246.04929,566.81805 23.26784,11.60646 -1.33796,-6.99484 c 0,0 40.75052,1.71744 84.22584,-11.35878 43.44199,-13.07374 58.5301,-37.09701 56.87751,-49.4139 -0.97477,-7.40941 -6.04276,-24.12602 -42.373,-35.47984 -18.93118,-5.67638 -46.44177,-10.28197 -86.43224,-10.6604 3.6e-4,0 57.16454,5.26004 80.00257,13.37386 23.54775,8.35937 36.72602,16.35272 39.96708,27.95173 4.06381,14.53536 -13.6304,32.5024 -50.19166,43.8417 -36.54248,11.36126 -82.28516,10.38685 -82.28516,10.38685 l 0.78839,-5.968 -22.50921,12.71516 z"
       class="fil8" />
    <path
       style="clip-rule:evenodd;fill:#ffffff;fill-rule:evenodd;image-rendering:optimizeQuality;shape-rendering:geometricPrecision;text-rendering:geometricPrecision"
       inkscape:connector-curvature="0"
       id="path1044"
       d="m 254.06425,465.36254 27.71362,-15.53209 -29.24717,-14.83937 1.53355,8.26725 c 0,0 -47.45516,-0.74516 -82.85173,11.74783 -35.38417,12.4728 -52.11921,28.32981 -55.95697,40.28174 -3.81437,11.92393 -2.9824,28.63913 29.90587,43.22409 34.36122,15.28901 107.46708,15.88358 121.63074,14.91449 l 3.25347,-1.72347 c 0,0 -38.4828,-1.14909 -67.27181,-6.14055 -28.87902,-5.00457 -47.97992,-10.69087 -59.25898,-17.01035 -12.02421,-6.79677 -27.94074,-18.19701 -10.76173,-37.41839 6.52748,-7.29673 24.64476,-17.61342 47.5037,-23.44216 25.25386,-7.10788 45.74303,-8.46319 74.177,-9.41174 l -0.36956,7.08272 z"
       class="fil1" />
    <path
       style="clip-rule:evenodd;fill:#e67015;fill-rule:evenodd;image-rendering:optimizeQuality;shape-rendering:geometricPrecision;text-rendering:geometricPrecision"
       inkscape:connector-curvature="0"
       id="path1046"
       d="m 278.20834,449.98459 -23.26428,-11.59618 1.34362,6.97641 c 0,0 -40.73741,-1.71566 -84.2152,11.35205 -43.43031,13.06276 -58.54252,37.11047 -56.88496,49.45323 0.95244,7.37575 6.02433,24.10157 42.36697,35.46142 18.95457,5.66185 46.42335,10.28445 86.43543,10.64445 0,0 -57.18472,-5.24056 -79.97421,-13.35934 -23.57717,-8.36645 -36.72354,-16.31834 -40.00358,-27.98964 -4.06807,-14.49567 13.67681,-32.47441 50.20263,-43.79386 36.49926,-11.36693 82.25468,-10.41626 82.25468,-10.41626 l -0.73736,5.9889 22.47626,-12.72118 z"
       class="fil8" />
    <path
       style="clip-rule:evenodd;fill:#ffffff;fill-rule:evenodd;image-rendering:optimizeQuality;shape-rendering:geometricPrecision;text-rendering:geometricPrecision"
       inkscape:connector-curvature="0"
       id="path1048"
       d="m 145.98276,528.55034 5.77346,-29.61426 -3.08551,0 5.63846,-12.17126 19.62284,0 c 0,0 8.87315,-0.32988 12.0313,2.6876 3.78212,3.60355 5.16968,8.78528 1.55126,16.78819 -3.94548,8.64673 -15.75284,8.44973 -15.75284,8.44973 l -9.39047,0 -2.74642,13.64563 -13.64208,0.21437 z"
       class="fil1" />
    <path
       style="clip-rule:evenodd;fill:#ffffff;fill-rule:evenodd;image-rendering:optimizeQuality;shape-rendering:geometricPrecision;text-rendering:geometricPrecision"
       inkscape:connector-curvature="0"
       id="path1050"
       d="m 191.46819,528.33774 5.56335,-29.39988 -2.69469,0 5.30185,-12.50115 19.96228,0 c 0,0 7.68614,-0.10381 11.06858,3.26658 3.37571,3.38634 4.91492,8.15917 1.82622,13.73421 -3.05893,5.58071 -11.32299,8.09539 -11.32299,8.09539 l 12.00331,16.9363 -16.44874,0 -8.92347,-15.02043 -2.80878,14.88898 -13.52692,0 z"
       class="fil1" />
    <polygon
       transform="matrix(3.5433071,0,0,3.5433071,-1144.0184,-1054.7127)"
       style="clip-rule:evenodd;fill:#ffffff;fill-rule:evenodd;image-rendering:optimizeQuality;shape-rendering:geometricPrecision;text-rendering:geometricPrecision"
       id="polygon1052"
       points="396.352,434.974 394.049,446.748 390.22,446.748 391.851,438.445 391.01,438.445 392.555,434.974 "
       class="fil1" />
    <polygon
       transform="matrix(3.5433071,0,0,3.5433071,-1144.0184,-1054.7127)"
       style="clip-rule:evenodd;fill:#ffffff;fill-rule:evenodd;image-rendering:optimizeQuality;shape-rendering:geometricPrecision;text-rendering:geometricPrecision"
       id="polygon1054"
       points="410.275,440.399 405.981,446.809 404.386,446.809 402.565,440.345 400.18,446.772 396.492,446.772 399.824,438.229 398.987,438.229 401.154,434.974 404.846,434.974 406.414,440.887 410.409,434.974 414.101,434.974 414.101,446.748 410.275,446.748 "
       class="fil1" />
    <polygon
       transform="matrix(3.5433071,0,0,3.5433071,-1144.0184,-1054.7127)"
       style="clip-rule:evenodd;fill:#ffffff;fill-rule:evenodd;image-rendering:optimizeQuality;shape-rendering:geometricPrecision;text-rendering:geometricPrecision"
       id="polygon1056"
       points="415.045,446.718 420.93,437.681 420.178,437.681 422.892,434.894 426.822,434.894 429.808,446.748 425.764,446.748 425.283,444.774 420.398,444.774 419.196,446.718 "
       class="fil1" />
    <path
       style="clip-rule:evenodd;fill:#004b92;fill-rule:evenodd;image-rendering:optimizeQuality;shape-rendering:geometricPrecision;text-rendering:geometricPrecision"
       inkscape:connector-curvature="0"
       id="path1058"
       d="m 164.23433,505.28852 1.79114,-9.22003 4.58008,0 c 0,0 4.7041,-0.12189 4.87488,2.86866 0.21296,2.97106 -1.03783,6.28193 -6.41728,6.35137 l -4.82882,0 z"
       class="fil0" />
    <path
       style="clip-rule:evenodd;fill:#004b92;fill-rule:evenodd;image-rendering:optimizeQuality;shape-rendering:geometricPrecision;text-rendering:geometricPrecision"
       inkscape:connector-curvature="0"
       id="path1060"
       d="m 209.4363,504.9838 1.63948,-9.31783 4.13116,0 c 0,0 3.91783,-0.10382 4.39369,2.40236 0.45355,2.31201 -0.20267,4.50921 -2.28649,5.65051 -2.36871,1.32732 -4.61907,1.26461 -4.61907,1.26461 l -3.25877,3.5e-4 z"
       class="fil0" />
    <polygon
       transform="matrix(3.5433071,0,0,3.5433071,-1144.0184,-1054.7127)"
       style="clip-rule:evenodd;fill:#004b92;fill-rule:evenodd;image-rendering:optimizeQuality;shape-rendering:geometricPrecision;text-rendering:geometricPrecision"
       id="polygon1062"
       points="422.023,442.187 424.755,442.187 423.972,438.904 "
       class="fil0" />
  </g>
</svg>
