<svg width="225" height="55" viewBox="0 0 225 55" fill="none" xmlns="http://www.w3.org/2000/svg">
<path d="M188.587 22.6541C187.22 22.6508 185.864 22.9063 184.59 23.4073C186.31 28.7914 189.698 33.4762 194.256 36.772C195.202 37.4449 196.202 38.0365 197.247 38.5405C198.462 36.8661 199.117 34.8451 199.118 32.77C199.118 27.1851 194.402 22.6526 188.589 22.6526" fill="#E71618"/>
<path d="M212.733 28.1823C216.596 25.1972 226.353 18.74 224.842 16.1237C223.621 14.0083 218.288 16.5617 212.264 19.8641C207.531 22.4648 208.551 19.3247 211.56 14.7355C214.214 10.696 218.198 5.24486 215.974 3.76973C213.389 2.05324 205.462 11.5558 203.61 13.4325C201.758 15.3092 200.066 16.3183 200.995 11.0918C202.241 4.15049 202.487 0.520884 200.94 0.0829212C198.774 -0.528771 197.42 2.19681 194.18 9.82424C191.86 15.2993 189.829 16.2683 189.582 11.3576C189.258 2.53334 187.032 4.55617 186.179 5.91323C183.83 9.63956 183.034 14.1612 183.563 18.6896C185.472 17.9589 187.497 17.5862 189.539 17.59C198.571 17.59 205.893 24.7129 205.893 33.4872C205.896 36.036 205.268 38.545 204.064 40.7859C209.22 41.7378 214.654 41.2806 218.749 39.2281C219.43 38.8858 221.085 37.8612 220.055 36.4479C217.997 33.6225 214.288 35.1059 210.322 33.945C206.839 32.9265 209.942 30.3346 212.731 28.1802" fill="#E71618"/>
<path d="M197.241 38.6471C196.24 40.0094 194.935 41.1142 193.431 41.8716C191.928 42.6291 190.268 43.018 188.587 43.0065C182.772 43.0065 178.056 38.4698 178.056 32.8761C178.082 30.8326 178.72 28.8448 179.886 27.1733C181.051 25.5019 182.691 24.2249 184.589 23.5098C184.095 21.9693 183.752 20.3841 183.563 18.7765C177.478 21.0953 173.172 26.8413 173.172 33.5741C173.172 42.3552 180.498 49.4761 189.538 49.4761C192.504 49.4972 195.42 48.7086 197.977 47.1941C200.534 45.6795 202.637 43.4952 204.064 40.8728C201.701 40.4424 199.406 39.6938 197.241 38.6471" fill="#5A5C5E"/>
<path d="M13.0188 25.7381C13.0079 25.4362 12.8805 25.1505 12.6638 24.9419C12.4471 24.7334 12.1582 24.6186 11.8587 24.6219H1.34844C1.04971 24.6202 0.762024 24.7357 0.546129 24.9439C0.330235 25.1522 0.20304 25.437 0.191406 25.7381C0.201109 26.0385 0.32822 26.3229 0.544992 26.5291C0.761764 26.7353 1.05059 26.8466 1.34844 26.8387H5.38104V38.8494C5.39028 39.1703 5.52313 39.4749 5.75139 39.6986C5.97965 39.9223 6.28533 40.0474 6.60355 40.0474C6.92177 40.0474 7.22746 39.9223 7.45572 39.6986C7.68398 39.4749 7.81683 39.1703 7.82607 38.8494V26.8387H11.8592C12.1573 26.8466 12.4465 26.7354 12.6638 26.5293C12.881 26.3231 13.0088 26.0388 13.0193 25.7381" fill="#1A1818"/>
<path d="M16.5262 28.1807C15.76 28.1844 15.0022 28.3425 14.2974 28.6457C13.5926 28.9488 12.9549 29.391 12.4218 29.9461C11.8887 30.5013 11.4709 31.1583 11.1929 31.8785C10.9148 32.5988 10.7823 33.3678 10.8029 34.1405V34.1868C10.7871 34.9763 10.9302 35.7608 11.2235 36.4929C11.5168 37.225 11.9542 37.8895 12.5092 38.4463C13.0643 39.003 13.7255 39.4405 14.4529 39.7322C15.1802 40.0239 15.9587 40.1639 16.7412 40.1435C17.5618 40.1702 18.3795 40.0317 19.1464 39.736C19.9133 39.4403 20.6142 38.9934 21.2079 38.4213C21.3216 38.3264 21.4136 38.2079 21.4775 38.0737C21.5414 37.9396 21.5757 37.793 21.5781 37.6442C21.5679 37.361 21.4469 37.0934 21.2415 36.9C21.0362 36.7066 20.7632 36.6031 20.4824 36.6122C20.2224 36.6139 19.9713 36.7082 19.7735 36.8785C18.9664 37.6458 17.8949 38.0658 16.786 38.0494C15.9404 38.0821 15.1127 37.7983 14.4619 37.2527C13.8111 36.707 13.3831 35.938 13.2603 35.0934H20.9346C21.2307 35.0998 21.5171 34.9876 21.7312 34.7813C21.9453 34.5749 22.0695 34.2914 22.0767 33.9928C22.0767 31.0997 20.169 28.1807 16.5262 28.1807ZM16.4839 30.23C18.4664 30.23 19.3986 31.7067 19.643 33.2048H13.2608C13.5949 31.4363 14.8747 30.23 16.4839 30.23Z" fill="#1A1818"/>
<path d="M24.7672 23.8999C24.6141 23.8973 24.462 23.9253 24.3196 23.9822C24.1772 24.0391 24.0474 24.1238 23.9376 24.2315C23.8279 24.3392 23.7403 24.4678 23.6799 24.6097C23.6195 24.7517 23.5876 24.9043 23.5859 25.0588V38.8796C23.5874 39.0363 23.6198 39.1911 23.6814 39.3349C23.743 39.4787 23.8324 39.6087 23.9445 39.7171C24.0565 39.8256 24.189 39.9103 24.334 39.9664C24.479 40.0225 24.6336 40.0488 24.7888 40.0437C24.943 40.0486 25.0966 40.022 25.2403 39.9655C25.384 39.9091 25.515 39.824 25.6254 39.7153C25.7358 39.6066 25.8233 39.4766 25.8827 39.333C25.9421 39.1894 25.9722 39.0352 25.9712 38.8796V25.0588C25.9633 24.7442 25.8322 24.4456 25.6065 24.2284C25.3809 24.0112 25.079 23.8931 24.7672 23.8999Z" fill="#1A1818"/>
<path d="M34.2424 33.5626L37.6599 30.3164C37.7915 30.212 37.8988 30.0797 37.9742 29.9289C38.0495 29.7781 38.0912 29.6124 38.0961 29.4436C38.0959 29.2968 38.0666 29.1514 38.0099 29.0162C37.9533 28.8809 37.8704 28.7584 37.7662 28.6559C37.6619 28.5534 37.5385 28.4729 37.403 28.4191C37.2675 28.3654 37.1228 28.3395 36.9772 28.343C36.8035 28.3431 36.6318 28.3809 36.4739 28.454C36.3159 28.5271 36.1755 28.6336 36.062 28.7664L30.6352 34.1005V25.0588C30.6224 24.7483 30.4912 24.4549 30.2689 24.2399C30.0467 24.0248 29.7506 23.9047 29.4426 23.9047C29.1346 23.9047 28.8386 24.0248 28.6163 24.2399C28.394 24.4549 28.2628 24.7483 28.25 25.0588V38.8796C28.2524 39.0364 28.2857 39.1912 28.3481 39.3349C28.4105 39.4786 28.5007 39.6083 28.6134 39.7164C28.7261 39.8245 28.859 39.9089 29.0044 39.9645C29.1498 40.0202 29.3047 40.0461 29.4601 40.0406C29.6137 40.0453 29.7666 40.0187 29.9097 39.9624C30.0528 39.9061 30.1832 39.8211 30.2929 39.7127C30.4027 39.6042 30.4896 39.4746 30.5484 39.3314C30.6072 39.1882 30.6367 39.0345 30.6352 38.8796V36.9551L32.5548 35.121L36.177 39.5308C36.2888 39.6931 36.4388 39.8248 36.6136 39.914C36.7884 40.0032 36.9825 40.047 37.1783 40.0416C37.397 40.0536 37.6143 39.9994 37.8022 39.8859C37.9901 39.7724 38.14 39.6048 38.2327 39.4046C38.3254 39.2044 38.3567 38.9808 38.3224 38.7626C38.2881 38.5444 38.1899 38.3415 38.0404 38.18L34.2424 33.5626Z" fill="#1A1818"/>
<path d="M44.5776 28.1812C41.0977 28.1812 38.3789 30.8069 38.3789 34.1629V34.2076C38.3789 37.5366 41.0802 40.1435 44.5312 40.1435C48.0208 40.1435 50.752 37.523 50.752 34.1618V34.1223C50.752 30.7861 48.0384 28.1807 44.5781 28.1807L44.5776 28.1812ZM40.8023 34.1223C40.7871 33.6208 40.8726 33.1214 41.0537 32.6541C41.2348 32.1869 41.5078 31.7614 41.8562 31.4033C42.2045 31.0452 42.6211 30.7619 43.0808 30.5705C43.5405 30.3791 44.0339 30.2834 44.5312 30.2893C45.0338 30.2875 45.5318 30.3867 45.9959 30.5812C46.4601 30.7757 46.8812 31.0616 47.2346 31.4221C47.588 31.7827 47.8667 32.2106 48.0542 32.681C48.2418 33.1514 48.3346 33.6549 48.3271 34.1618V34.2066C48.3388 34.7074 48.25 35.2053 48.0659 35.6706C47.8819 36.1358 47.6064 36.5587 47.2561 36.9137C46.9058 37.2687 46.4879 37.5486 46.0276 37.7364C45.5673 37.9243 45.0741 38.0162 44.5776 38.0067C44.078 38.0094 43.5829 37.9116 43.1213 37.7188C42.6596 37.5261 42.2407 37.2424 41.8891 36.8844C41.5375 36.5263 41.2602 36.1011 41.0735 35.6336C40.8868 35.1661 40.7944 34.6658 40.8018 34.1618L40.8023 34.1223Z" fill="#1A1818"/>
<path d="M65.275 28.1828C64.5266 28.1586 63.7831 28.3135 63.1055 28.6348C62.4278 28.9561 61.8351 29.4347 61.3759 30.0314C60.9779 29.4375 60.4362 28.956 59.802 28.6324C59.1679 28.3089 58.4623 28.1542 57.7522 28.1828C57.1454 28.1646 56.5417 28.2772 55.9816 28.5132C55.4214 28.7492 54.9176 29.1031 54.5039 29.5513V29.467C54.4911 29.1554 54.3593 28.8608 54.1362 28.6449C53.9131 28.4289 53.6158 28.3084 53.3066 28.3084C52.9974 28.3084 52.7002 28.4289 52.4771 28.6449C52.254 28.8608 52.1222 29.1554 52.1094 29.467V38.8432C52.1119 38.9999 52.1453 39.1546 52.2075 39.2981C52.2698 39.4417 52.3597 39.5714 52.472 39.6797C52.5844 39.7879 52.7169 39.8726 52.862 39.9287C53.007 39.9849 53.1617 40.0114 53.317 40.0068C53.4713 40.0116 53.6249 39.9851 53.7688 39.9287C53.9127 39.8724 54.0439 39.7873 54.1546 39.6787C54.2652 39.5702 54.3531 39.4403 54.4129 39.2967C54.4728 39.1532 54.5033 38.9989 54.5029 38.8432V33.3973C54.5029 31.6257 55.6552 30.3352 57.249 30.3352C58.8505 30.3352 59.7704 31.3822 59.7704 33.2043V38.8432C59.7704 38.9985 59.8012 39.1522 59.861 39.2952C59.9207 39.4383 60.0083 39.5678 60.1185 39.6763C60.2286 39.7847 60.3592 39.8698 60.5024 39.9265C60.6457 39.9833 60.7988 40.0106 60.9526 40.0068C61.1075 40.0111 61.2617 39.9842 61.4062 39.9279C61.5507 39.8715 61.6827 39.7867 61.7944 39.6785C61.9061 39.5702 61.9954 39.4406 62.0571 39.2972C62.1187 39.1538 62.1515 38.9995 62.1535 38.8432V33.3297C62.1535 31.5445 63.2445 30.3367 64.8605 30.3367C66.4996 30.3367 67.4034 31.3708 67.4034 33.2495V38.8432C67.4146 39.1547 67.5451 39.4497 67.7675 39.6662C67.9899 39.8826 68.2868 40.0035 68.5958 40.0035C68.9048 40.0035 69.2018 39.8826 69.4242 39.6662C69.6466 39.4497 69.777 39.1547 69.7881 38.8432V32.8667C69.7881 29.9763 68.0624 28.1828 65.274 28.1828" fill="#1A1818"/>
<path d="M76.2945 24.7905C76.0053 24.7912 75.7278 24.9058 75.521 25.1098C75.3143 25.3138 75.1946 25.5911 75.1875 25.8828V39.1465C75.1999 39.4372 75.3231 39.7119 75.5313 39.9131C75.7396 40.1144 76.0169 40.2268 76.3053 40.2268C76.5938 40.2268 76.8711 40.1144 77.0793 39.9131C77.2876 39.7119 77.4108 39.4372 77.4232 39.1465V25.8828C77.4166 25.5872 77.294 25.3062 77.0825 25.1014C76.8709 24.8967 76.5876 24.7849 76.2945 24.7905Z" fill="#1A1818"/>
<path d="M86.0162 28.4887C85.3333 28.465 84.6538 28.5967 84.0283 28.8742C83.4028 29.1516 82.8472 29.5676 82.4028 30.0912V29.6834C82.3921 29.3974 82.272 29.1267 82.0676 28.9282C81.8633 28.7296 81.5906 28.6186 81.3069 28.6186C81.0231 28.6186 80.7505 28.7296 80.5461 28.9282C80.3417 29.1267 80.2216 29.3974 80.2109 29.6834V39.1387C80.2129 39.2827 80.2434 39.4249 80.3007 39.5569C80.358 39.6888 80.4409 39.8078 80.5445 39.907C80.6481 40.0061 80.7703 40.0833 80.9039 40.134C81.0376 40.1848 81.1799 40.208 81.3226 40.2023C81.4636 40.2069 81.6041 40.1827 81.7356 40.1312C81.8672 40.0798 81.9871 40.0021 82.0881 39.9028C82.1892 39.8035 82.2694 39.6846 82.3239 39.5533C82.3784 39.422 82.4061 39.281 82.4054 39.1387V33.6205C82.3858 33.1997 82.4535 32.7794 82.604 32.3865C82.7546 31.9936 82.9847 31.6366 83.2797 31.3385C83.5748 31.0404 83.9281 30.8077 84.3174 30.6552C84.7066 30.5026 85.1231 30.4337 85.5403 30.4527C87.3691 30.4527 88.4148 31.5581 88.4148 33.492V39.1392C88.417 39.2828 88.4474 39.4246 88.5045 39.5562C88.5615 39.6878 88.6441 39.8066 88.7472 39.9056C88.8504 40.0047 88.972 40.082 89.1051 40.133C89.2382 40.1841 89.38 40.2078 89.5224 40.2029C89.6633 40.2065 89.8035 40.1817 89.9347 40.1299C90.066 40.0781 90.1857 40.0004 90.2868 39.9013C90.3879 39.8022 90.4684 39.6838 90.5235 39.5529C90.5786 39.4221 90.6072 39.2814 90.6077 39.1392V33.0972C90.6077 30.2983 88.8031 28.4892 86.0188 28.4892" fill="#1A1818"/>
<path d="M102.92 24.1615C102.78 24.157 102.639 24.1811 102.508 24.2324C102.376 24.2838 102.257 24.3612 102.156 24.4603C102.055 24.5593 101.974 24.6778 101.92 24.8088C101.865 24.9398 101.837 25.0805 101.837 25.2226V30.3669C101.334 29.7769 100.708 29.3059 100.004 28.9872C99.3005 28.6686 98.5357 28.5101 97.7642 28.523C97.0033 28.5196 96.2496 28.6718 95.5486 28.9703C94.8476 29.2687 94.2139 29.7074 93.6855 30.2597C93.1571 30.812 92.7451 31.4666 92.4743 32.1839C92.2035 32.9012 92.0796 33.6664 92.11 34.4334V34.4745C92.0809 35.24 92.2059 36.0035 92.4775 36.7189C92.749 37.4343 93.1614 38.0867 93.6898 38.6369C94.2183 39.187 94.8517 39.6234 95.552 39.9198C96.2523 40.2161 97.0048 40.3662 97.7642 40.361C98.5443 40.3724 99.3166 40.2042 100.022 39.8691C100.728 39.534 101.349 39.0408 101.837 38.4271V39.1725C101.839 39.3162 101.87 39.4581 101.927 39.5898C101.984 39.7215 102.066 39.8403 102.169 39.9394C102.273 40.0384 102.395 40.1156 102.528 40.1664C102.661 40.2172 102.803 40.2405 102.946 40.2351C103.086 40.2388 103.226 40.214 103.357 40.1623C103.488 40.1106 103.608 40.0329 103.709 39.9339C103.81 39.8349 103.89 39.7165 103.945 39.5857C104 39.455 104.028 39.3145 104.028 39.1725V25.2226C104.026 25.0792 103.995 24.9376 103.938 24.8063C103.88 24.675 103.798 24.5565 103.695 24.4577C103.591 24.3589 103.47 24.2818 103.337 24.231C103.204 24.1802 103.062 24.1565 102.92 24.1615H102.92ZM101.905 34.4136V34.4583C101.914 35.4969 101.516 36.497 100.797 37.2399C100.077 37.9827 99.0952 38.4078 98.0658 38.4219C97.5598 38.4191 97.0595 38.3132 96.5951 38.1105C96.1307 37.9078 95.7117 37.6124 95.3633 37.2422C95.0149 36.872 94.7443 36.4345 94.5677 35.9561C94.3912 35.4777 94.3123 34.9683 94.3359 34.4583V34.4152C94.3359 32.0875 95.8755 30.4652 98.0658 30.4652C98.5765 30.4648 99.0823 30.5672 99.5532 30.7665C100.024 30.9658 100.451 31.258 100.809 31.6259C101.166 31.9938 101.447 32.43 101.635 32.909C101.824 33.388 101.915 33.9001 101.905 34.4152" fill="#1A1818"/>
<path d="M111.822 28.4871C108.367 28.4871 105.664 31.0909 105.664 34.4219V34.4604C105.664 37.7571 108.349 40.3469 111.779 40.3469C115.237 40.3469 117.953 37.742 117.953 34.4219V34.3777C117.953 31.0722 115.258 28.4871 111.823 28.4871H111.822ZM107.895 34.3777C107.88 33.8566 107.969 33.3378 108.159 32.8527C108.348 32.3675 108.633 31.9261 108.996 31.5551C109.359 31.1841 109.793 30.8911 110.271 30.694C110.749 30.4968 111.262 30.3995 111.779 30.408C112.301 30.4046 112.818 30.5065 113.3 30.7075C113.782 30.9086 114.219 31.2048 114.586 31.5787C114.953 31.9526 115.242 32.3968 115.437 32.885C115.631 33.3733 115.727 33.8958 115.718 34.4219V34.4604C115.731 34.9807 115.639 35.4982 115.447 35.9816C115.256 36.465 114.97 36.9043 114.606 37.2731C114.242 37.6419 113.808 37.9325 113.329 38.1274C112.851 38.3224 112.338 38.4176 111.823 38.4073C111.304 38.4111 110.789 38.3104 110.31 38.1112C109.83 37.9119 109.394 37.6181 109.029 37.247C108.663 36.8759 108.374 36.4348 108.179 35.9498C107.985 35.4647 107.888 34.9452 107.895 34.4219V34.3777Z" fill="#1A1818"/>
<path d="M125.368 28.4887C124.685 28.4656 124.006 28.5977 123.38 28.8751C122.754 29.1525 122.198 29.5681 121.753 30.0912V29.6834C121.743 29.3975 121.623 29.1269 121.418 28.9285C121.214 28.73 120.942 28.6191 120.658 28.6191C120.374 28.6191 120.102 28.73 119.897 28.9285C119.693 29.1269 119.573 29.3975 119.562 29.6834V39.1387C119.564 39.2823 119.595 39.4242 119.652 39.5559C119.709 39.6876 119.791 39.8065 119.894 39.9056C119.997 40.0046 120.119 40.082 120.252 40.1329C120.385 40.1839 120.527 40.2075 120.67 40.2023C120.811 40.2078 120.952 40.1842 121.084 40.1331C121.215 40.0819 121.336 40.0042 121.437 39.9047C121.538 39.8052 121.618 39.6861 121.673 39.5544C121.727 39.4227 121.754 39.2812 121.752 39.1387V33.6204C121.733 33.1992 121.801 32.7785 121.952 32.3853C122.104 31.9922 122.334 31.6351 122.63 31.337C122.926 31.0389 123.28 30.8063 123.669 30.654C124.059 30.5017 124.476 30.4332 124.894 30.4527C126.718 30.4527 127.766 31.558 127.766 33.4919V39.1392C127.767 39.2827 127.797 39.4244 127.854 39.556C127.911 39.6876 127.993 39.8064 128.096 39.9056C128.199 40.0047 128.32 40.0821 128.453 40.1331C128.586 40.1842 128.728 40.2079 128.87 40.2029C129.011 40.2071 129.151 40.1828 129.283 40.1312C129.415 40.0797 129.535 40.002 129.636 39.9028C129.737 39.8036 129.818 39.6849 129.873 39.5537C129.928 39.4226 129.956 39.2816 129.956 39.1392V33.0972C129.956 30.2983 128.152 28.4892 125.367 28.4892" fill="#1A1818"/>
<path d="M137.092 28.4871C136.332 28.4916 135.581 28.6489 134.883 28.95C134.184 29.251 133.552 29.6897 133.024 30.2403C132.496 30.7908 132.082 31.4422 131.807 32.1562C131.531 32.8703 131.4 33.6326 131.42 34.3985V34.4391C131.404 35.2225 131.546 36.001 131.837 36.7275C132.128 37.454 132.562 38.1135 133.113 38.6659C133.664 39.2183 134.32 39.6522 135.042 39.9414C135.764 40.2306 136.536 40.3691 137.313 40.3485C138.129 40.376 138.941 40.239 139.704 39.9453C140.466 39.6516 141.163 39.2072 141.752 38.6383C141.856 38.5525 141.94 38.4452 141.999 38.3236C142.057 38.202 142.089 38.0691 142.092 37.934C142.087 37.8062 142.057 37.6806 142.005 37.5644C141.952 37.4482 141.877 37.3436 141.784 37.2567C141.691 37.1697 141.582 37.1021 141.463 37.0576C141.344 37.0132 141.218 36.9928 141.091 36.9977C140.857 37.0018 140.631 37.0882 140.452 37.2422C139.612 38.0322 138.502 38.4644 137.353 38.4484C136.454 38.4733 135.578 38.16 134.896 37.5694C134.213 36.9788 133.773 36.1531 133.661 35.2531H141.553C141.823 35.2576 142.083 35.1545 142.278 34.9662C142.473 34.7779 142.586 34.5197 142.593 34.2477C142.593 31.3895 140.705 28.4886 137.093 28.4886L137.092 28.4871ZM133.661 33.5684C133.966 31.6522 135.323 30.3497 137.049 30.3497C139.179 30.3497 140.15 31.9591 140.375 33.5684H133.661Z" fill="#1A1818"/>
<path d="M148.616 33.401L148.571 33.3921C147.188 32.9854 145.89 32.602 145.89 31.7604V31.7219C145.89 30.9272 146.664 30.3852 147.817 30.3852C148.812 30.4158 149.784 30.6942 150.646 31.1955C150.802 31.2709 150.973 31.31 151.146 31.31C151.4 31.3194 151.648 31.2265 151.835 31.0517C152.021 30.8769 152.131 30.6346 152.141 30.3779C152.137 30.1955 152.086 30.0174 151.991 29.8619C151.896 29.7065 151.762 29.5793 151.603 29.4936C150.447 28.8867 149.167 28.5594 147.865 28.5376C145.447 28.5376 143.758 29.9155 143.758 31.8925V31.9373C143.758 34.1703 146.027 34.7897 147.681 35.2418C149.181 35.6464 150.318 36.0267 150.318 36.9234V36.966C150.318 37.8571 149.485 38.4485 148.232 38.4485C147.002 38.4249 145.806 38.0378 144.791 37.3354C144.627 37.2188 144.43 37.1588 144.229 37.1642C144.024 37.1523 143.821 37.2089 143.65 37.3252C143.48 37.4415 143.352 37.6111 143.287 37.8078C143.222 38.0044 143.222 38.2173 143.288 38.4137C143.355 38.61 143.484 38.7788 143.654 38.8942C144.984 39.7944 146.544 40.2847 148.145 40.3054C150.705 40.3054 152.424 38.8979 152.424 36.797V36.759C152.424 34.5057 150.134 33.8462 148.62 33.4031" fill="#1A1818"/>
<path d="M155.384 28.6182C155.1 28.6147 154.827 28.7246 154.624 28.9238C154.422 29.123 154.305 29.3952 154.301 29.6808V39.136C154.302 39.2795 154.333 39.4213 154.389 39.5528C154.446 39.6844 154.528 39.8032 154.631 39.9022C154.734 40.0012 154.856 40.0784 154.989 40.1294C155.122 40.1803 155.264 40.2039 155.406 40.1988C155.547 40.2039 155.688 40.1801 155.82 40.129C155.952 40.0778 156.072 40.0003 156.174 39.901C156.275 39.8018 156.356 39.6828 156.411 39.5514C156.465 39.4199 156.493 39.2787 156.493 39.136V29.6808C156.49 29.5373 156.46 29.3957 156.403 29.2642C156.346 29.1327 156.263 29.014 156.16 28.9151C156.057 28.8162 155.935 28.7389 155.802 28.6879C155.669 28.637 155.527 28.6133 155.385 28.6182" fill="#1A1818"/>
<path d="M167.335 29.8442C166.459 29.0031 165.17 28.5704 163.506 28.5704C162.201 28.5563 160.908 28.8147 159.707 29.3293C159.497 29.4091 159.322 29.5626 159.214 29.7618C159.106 29.961 159.072 30.1927 159.119 30.4147C159.166 30.6366 159.291 30.8342 159.47 30.9714C159.649 31.1086 159.872 31.1763 160.096 31.1622C160.232 31.1592 160.367 31.1331 160.495 31.0853C161.389 30.6905 162.355 30.4877 163.331 30.4897C164.751 30.4897 166.438 30.9667 166.438 33.2163V33.2746C165.387 33.0072 164.307 32.8778 163.223 32.8897C160.081 32.8897 158.133 34.3279 158.133 36.6467V36.693C158.133 39.0773 160.384 40.3241 162.609 40.3241C163.312 40.347 164.012 40.2287 164.67 39.9762C165.327 39.7237 165.928 39.3419 166.438 38.8531V39.1938C166.44 39.3314 166.469 39.4671 166.524 39.5929C166.579 39.7187 166.659 39.832 166.759 39.9258C166.858 40.0197 166.976 40.0922 167.104 40.139C167.232 40.1858 167.368 40.206 167.505 40.1983C167.643 40.2033 167.781 40.1798 167.91 40.1295C168.04 40.0791 168.157 40.0029 168.257 39.9053C168.356 39.8077 168.434 39.6908 168.487 39.5617C168.541 39.4326 168.567 39.294 168.566 39.1543V33.1981C168.603 32.5834 168.513 31.9676 168.301 31.39C168.089 30.8125 167.76 30.286 167.334 29.8442H167.335ZM166.469 34.9827V35.8467C166.469 37.3879 164.948 38.5546 162.936 38.5546C161.691 38.5546 160.347 37.9481 160.347 36.6238V36.5884C160.347 35.3265 161.485 34.5775 163.394 34.5775C164.432 34.5776 165.466 34.714 166.469 34.9832" fill="#1A1818"/>
<path d="M0.0689868 52.8793C0.0705827 52.733 0.0890954 52.5874 0.124155 52.4455L0.765577 50.0242H0.198405L0.343291 49.4838H0.921808L1.2487 48.2323H1.85403L1.5194 49.4838H2.80843L2.67076 50.0242H1.37658L0.736188 52.4143C0.722987 52.5144 0.714896 52.615 0.711952 52.716C0.711952 53.0078 0.924386 53.1424 1.27242 53.1424C1.47785 53.1384 1.68058 53.0945 1.8695 53.013L1.71482 53.5742C1.50915 53.6594 1.28847 53.7014 1.06618 53.698C0.475803 53.698 0.0664062 53.414 0.0664062 52.8798" fill="#1A1818"/>
<path d="M1.06887 53.7693C0.410945 53.7693 0 53.427 0 52.8783C0.00193136 52.7259 0.0211338 52.5743 0.0572329 52.4263L0.675969 50.0934H0.108797L0.290807 49.4125H0.868293L1.19467 48.1642H1.94489L1.60871 49.4125H2.90135L2.72553 50.0934H1.43237L0.806418 52.4299C0.793753 52.5245 0.786181 52.6196 0.783732 52.715C0.783732 52.9516 0.949757 53.0723 1.27511 53.0723C1.47196 53.0678 1.66612 53.0251 1.84692 52.9465L1.97634 52.8944L1.77422 53.6226L1.74277 53.6361C1.52904 53.7253 1.2996 53.7697 1.06835 53.7667L1.06887 53.7693ZM0.289776 49.9514H0.853341L0.192839 52.4591C0.158746 52.5952 0.140407 52.7348 0.138187 52.8752C0.138187 53.3433 0.487253 53.6242 1.06629 53.6242C1.26839 53.6278 1.46922 53.591 1.65718 53.516L1.76649 53.1223C1.60754 53.178 1.44078 53.2076 1.27253 53.2101C0.723404 53.2101 0.642453 52.8981 0.642453 52.7113C0.644083 52.6069 0.652175 52.5027 0.666686 52.3993L1.32255 49.9499H2.61673L2.71985 49.5488H1.42928L1.76494 48.2979H1.30089L0.973475 49.5488H0.397023L0.289776 49.9514Z" fill="#1A1818"/>
<path d="M4.34105 47.7767H4.9469L4.32249 50.1491C4.48887 49.9237 4.70341 49.7389 4.9502 49.6085C5.197 49.4782 5.46973 49.4055 5.74816 49.396C5.92046 49.3812 6.09389 49.4039 6.25677 49.4624C6.41965 49.521 6.56821 49.6141 6.69244 49.7354C6.81668 49.8567 6.91371 50.0036 6.977 50.1659C7.04029 50.3282 7.06837 50.5023 7.05936 50.6765C7.0492 50.8945 7.01355 51.1105 6.95314 51.32L6.34885 53.6216H5.73578L6.35916 51.2731C6.39863 51.1213 6.41925 50.9651 6.42052 50.8081C6.42663 50.6875 6.40647 50.567 6.36147 50.4551C6.31647 50.3432 6.24772 50.2426 6.16005 50.1603C6.07237 50.0781 5.96791 50.0162 5.85399 49.979C5.74008 49.9419 5.61947 49.9303 5.50066 49.9452C5.14489 49.98 4.80938 50.1283 4.54289 50.3686C4.27639 50.6089 4.0928 50.9287 4.01879 51.2815L3.39748 53.6222H2.78906L4.34105 47.7767Z" fill="#1A1818"/>
<path d="M6.4005 53.6944H5.64203L6.28964 51.256C6.3248 51.1091 6.34399 50.9588 6.34687 50.8077C6.35274 50.6964 6.33425 50.5851 6.29269 50.4819C6.25113 50.3786 6.18753 50.2858 6.10641 50.2101C6.0253 50.1344 5.92865 50.0777 5.82335 50.044C5.71805 50.0103 5.60668 50.0003 5.49715 50.0149C5.15622 50.0493 4.83505 50.1924 4.58032 50.4236C4.32559 50.6547 4.15059 50.9619 4.08076 51.3002L3.44656 53.6929H2.69531L2.71851 53.6045L4.28804 47.7024H5.03516L4.45612 49.9005C4.62148 49.722 4.82091 49.5791 5.04243 49.4803C5.26395 49.3815 5.50298 49.329 5.74515 49.3258C5.92666 49.3099 6.10943 49.3336 6.28109 49.3952C6.45275 49.4567 6.6093 49.5547 6.74016 49.6826C6.87102 49.8105 6.97314 49.9652 7.03961 50.1363C7.10608 50.3074 7.13535 50.491 7.12545 50.6745C7.11448 50.8986 7.0785 51.1207 7.0182 51.3366L6.4005 53.6944ZM5.82611 53.553H6.29428L6.88672 51.3008C6.94492 51.0974 6.97952 50.8879 6.98984 50.6765C6.9987 50.5113 6.97222 50.346 6.9122 50.1919C6.85217 50.0379 6.76001 49.8987 6.64195 49.7837C6.52389 49.6688 6.38271 49.5808 6.22798 49.5258C6.07324 49.4707 5.90857 49.4498 5.74515 49.4646C5.47654 49.4745 5.21354 49.545 4.97554 49.671C4.73755 49.7971 4.53062 49.9754 4.37002 50.1928L4.17408 50.4134L4.85469 47.8402H4.39477L2.87681 53.5483H3.34086L3.94721 51.2597C4.0258 50.8919 4.21862 50.5589 4.49764 50.3092C4.77665 50.0596 5.12733 49.9062 5.49869 49.8714C5.62658 49.8566 5.75611 49.8701 5.87834 49.9108C6.00058 49.9515 6.1126 50.0184 6.20668 50.1071C6.30075 50.1957 6.37464 50.3038 6.42324 50.4241C6.47183 50.5443 6.49398 50.6737 6.48815 50.8035C6.48553 50.9667 6.46408 51.129 6.42421 51.2872L5.82611 53.553Z" fill="#1A1818"/>
<path d="M8.50484 51.9322C8.49287 52.0997 8.51676 52.2679 8.5749 52.4252C8.63303 52.5826 8.72405 52.7255 8.84177 52.8443C8.9595 52.9631 9.10116 53.0549 9.25717 53.1135C9.41317 53.1722 9.57986 53.1963 9.74591 53.1842C10.2126 53.1849 10.6631 53.0119 11.0112 52.6983L11.3319 53.103C10.8889 53.5053 10.3126 53.7256 9.71652 53.7205C9.47938 53.7385 9.24114 53.7059 9.01734 53.6248C8.79354 53.5436 8.58922 53.4158 8.41774 53.2496C8.24626 53.0834 8.11147 52.8825 8.02217 52.6602C7.93287 52.4378 7.89107 52.199 7.8995 51.9592C7.89598 51.3043 8.14205 50.6731 8.58685 50.196C9.03164 49.7189 9.64116 49.4325 10.2894 49.3959C10.5003 49.3812 10.712 49.412 10.9102 49.4863C11.1084 49.5606 11.2887 49.6767 11.4389 49.8268C11.5891 49.977 11.7059 50.1577 11.7814 50.357C11.857 50.5562 11.8895 50.7694 11.8769 50.9824C11.8751 51.2591 11.8226 51.5331 11.7222 51.7907H8.51411C8.50611 51.8374 8.50283 51.8848 8.50432 51.9322H8.50484ZM11.2479 51.2919C11.2682 51.1891 11.2781 51.0846 11.2773 50.9798C11.2905 50.8393 11.2734 50.6976 11.2271 50.5645C11.1809 50.4313 11.1065 50.3098 11.0093 50.2085C10.912 50.1071 10.7941 50.0281 10.6636 49.9771C10.5332 49.9261 10.3934 49.9042 10.2538 49.9129C9.86828 49.9317 9.49917 50.076 9.20173 50.3241C8.90429 50.5722 8.69453 50.9108 8.60383 51.2893L11.2479 51.2919Z" fill="#1A1818"/>
<path d="M9.71745 53.7927C9.47093 53.8116 9.22326 53.7776 8.99069 53.693C8.75811 53.6085 8.54589 53.4752 8.36796 53.302C8.19004 53.1289 8.05043 52.9197 7.95831 52.6883C7.86618 52.4569 7.82361 52.2084 7.83341 51.9592C7.83191 51.2869 8.08569 50.6396 8.54263 50.1502C8.99957 49.6608 9.62496 49.3665 10.2903 49.3278C10.51 49.3142 10.7301 49.3475 10.9362 49.4256C11.1423 49.5037 11.3297 49.6248 11.4862 49.781C11.6427 49.9371 11.7648 50.1249 11.8445 50.3319C11.9241 50.5389 11.9596 50.7606 11.9485 50.9824C11.9465 51.2673 11.8925 51.5494 11.7892 51.8146L11.7737 51.8573H8.57692C8.57692 51.8828 8.57692 51.9093 8.57692 51.9306C8.56615 52.0885 8.58906 52.2469 8.64411 52.3951C8.69916 52.5434 8.78506 52.6779 8.89602 52.7898C9.00699 52.9017 9.14044 52.9883 9.28738 53.0437C9.43433 53.0992 9.59135 53.1223 9.74787 53.1114C10.1987 53.112 10.634 52.9454 10.9709 52.6432L11.0256 52.5979L11.4298 53.1103L11.3782 53.1561C10.924 53.5691 10.3331 53.796 9.72158 53.7922L9.71745 53.7927ZM10.2944 49.4667C9.66525 49.5043 9.07424 49.7835 8.64274 50.2469C8.21124 50.7104 7.97201 51.3229 7.97417 51.9587C7.96585 52.1891 8.0059 52.4187 8.09169 52.6324C8.17747 52.846 8.30706 53.039 8.47196 53.1986C8.63685 53.3582 8.83333 53.4809 9.0485 53.5586C9.26368 53.6362 9.49271 53.6671 9.72055 53.6492C10.2767 53.6543 10.8159 53.4562 11.2385 53.0916L11.0044 52.7961C10.6534 53.0949 10.2082 53.2575 9.7489 53.2544C9.57378 53.2665 9.39812 53.2406 9.23376 53.1784C9.06941 53.1162 8.92019 53.0191 8.79617 52.8938C8.67214 52.7685 8.5762 52.6179 8.51481 52.452C8.45341 52.2861 8.428 52.1088 8.44028 51.9321C8.43883 51.8799 8.44246 51.8277 8.45111 51.7761L8.46606 51.721H11.6809C11.7666 51.4846 11.8114 51.2351 11.8134 50.9834C11.8263 50.7796 11.7957 50.5753 11.7237 50.3845C11.6517 50.1936 11.5399 50.0205 11.3959 49.8769C11.252 49.7333 11.0791 49.6225 10.8891 49.552C10.6991 49.4815 10.4963 49.453 10.2944 49.4682V49.4667ZM11.3097 51.3637H8.51401L8.54082 51.2726C8.63416 50.8786 8.85237 50.526 9.16233 50.2685C9.47229 50.0109 9.85709 49.8623 10.2583 49.8453C10.4073 49.836 10.5566 49.8593 10.6958 49.9137C10.8351 49.968 10.961 50.0522 11.0649 50.1603C11.1688 50.2685 11.2483 50.3981 11.2979 50.5402C11.3474 50.6822 11.3659 50.8334 11.3519 50.9834C11.3526 51.0924 11.3425 51.2011 11.3215 51.308L11.3097 51.3637ZM8.7053 51.2222H11.1936C11.2059 51.1432 11.2112 51.0633 11.2096 50.9834C11.2225 50.8524 11.207 50.7202 11.1642 50.5958C11.1215 50.4714 11.0525 50.3579 10.962 50.263C10.8715 50.1681 10.7616 50.0942 10.6401 50.0464C10.5185 49.9985 10.3881 49.9778 10.2578 49.9858C9.90281 50.0004 9.56148 50.1279 9.28257 50.3499C9.00367 50.572 8.80144 50.8772 8.70479 51.2222" fill="#1A1818"/>
<path d="M15.3359 49.4829H15.965L16.1748 52.7827L18.1579 49.4683H18.6673L18.8947 52.7827L20.871 49.4829H21.5099L18.954 53.6591H18.4136L18.1749 50.3874L16.1991 53.6591H15.6623L15.3359 49.4829Z" fill="#1A1818"/>
<path d="M18.9932 53.7298H18.3502L18.1234 50.6089L16.2393 53.7298H15.601L15.2617 49.4126H16.0315L16.2306 52.5532L18.1208 49.397H18.7339L18.953 52.5568L20.8355 49.4126H21.6367L18.9932 53.7298ZM18.4776 53.5883H18.9148L21.3841 49.553H20.9097L18.8416 53.0068L18.6024 49.5379H18.1961L16.1182 53.0089L15.8985 49.553H15.4097L15.7278 53.5883H16.1594L18.2296 50.1647L18.4776 53.5883Z" fill="#1A1818"/>
<path d="M21.5878 51.8588C21.5996 51.2143 21.8566 50.599 22.3057 50.1404C22.7549 49.6818 23.3616 49.415 24.0004 49.3954C24.2466 49.3806 24.4932 49.418 24.7242 49.5052C24.9553 49.5924 25.1656 49.7275 25.3417 49.9018C25.5178 50.0761 25.6558 50.2856 25.7467 50.517C25.8376 50.7483 25.8794 50.9964 25.8695 51.245C25.8578 51.8914 25.6005 52.5085 25.1508 52.9691C24.7011 53.4296 24.0932 53.6984 23.4528 53.7199C23.2059 53.734 22.9588 53.6956 22.7275 53.6073C22.4962 53.519 22.2859 53.3827 22.1101 53.2073C21.9343 53.0318 21.797 52.8211 21.707 52.5887C21.6171 52.3563 21.5764 52.1075 21.5878 51.8583V51.8588ZM25.2486 51.2653C25.2637 51.0894 25.2409 50.9122 25.1819 50.746C25.1228 50.5797 25.0289 50.4283 24.9065 50.3021C24.7842 50.1758 24.6362 50.0777 24.4728 50.0144C24.3094 49.9511 24.1343 49.9241 23.9596 49.9353C23.4827 49.9741 23.0376 50.1919 22.7121 50.5458C22.3867 50.8996 22.2046 51.3636 22.2019 51.8463C22.187 52.0215 22.2098 52.1978 22.2689 52.3633C22.3279 52.5287 22.4217 52.6793 22.5439 52.8048C22.666 52.9302 22.8137 53.0274 22.9766 53.0899C23.1395 53.1523 23.3139 53.1784 23.4878 53.1664C23.9645 53.1311 24.4104 52.9157 24.7366 52.5634C25.0628 52.211 25.2453 51.7475 25.2476 51.2653" fill="#1A1818"/>
<path d="M23.4509 53.7926C23.1947 53.8059 22.9387 53.7651 22.699 53.6729C22.4594 53.5807 22.2414 53.439 22.0591 53.257C21.8767 53.075 21.734 52.8567 21.64 52.616C21.546 52.3752 21.5029 52.1173 21.5132 51.8588C21.5261 51.1956 21.7912 50.5629 22.2536 50.0913C22.7159 49.6197 23.3403 49.3454 23.9974 49.3251C24.2527 49.3108 24.5081 49.3504 24.7473 49.4414C24.9865 49.5323 25.2043 49.6726 25.3867 49.8533C25.5692 50.034 25.7122 50.2511 25.8067 50.4907C25.9012 50.7304 25.9451 50.9873 25.9356 51.245C25.924 51.9101 25.6597 52.5453 25.1974 53.0195C24.735 53.4938 24.1099 53.7709 23.4509 53.7937V53.7926ZM23.9974 49.4661C23.3776 49.4867 22.7891 49.7463 22.3533 50.1914C21.9174 50.6365 21.6674 51.2333 21.6545 51.8588C21.6448 52.0984 21.6847 52.3375 21.7719 52.5607C21.859 52.7838 21.9914 52.9861 22.1606 53.1547C22.3298 53.3232 22.532 53.4543 22.7542 53.5394C22.9765 53.6246 23.214 53.6619 23.4514 53.6491C24.0735 53.6289 24.664 53.368 25.1005 52.9205C25.5371 52.4731 25.7863 51.8733 25.7964 51.2455C25.8078 51.0057 25.7689 50.7662 25.6821 50.5426C25.5952 50.3191 25.4625 50.1165 25.2926 49.9484C25.1227 49.7802 24.9195 49.6503 24.6963 49.567C24.4731 49.4837 24.2349 49.4489 23.9974 49.4651V49.4661ZM23.486 53.2366C23.3031 53.2482 23.1199 53.22 22.9488 53.154C22.7777 53.088 22.6226 52.9857 22.4941 52.8539C22.3657 52.7222 22.2667 52.5641 22.2041 52.3904C22.1414 52.2168 22.1165 52.0315 22.1309 51.8473C22.1324 51.3461 22.3212 50.864 22.6596 50.4971C22.9981 50.1302 23.4613 49.9056 23.9567 49.8682C24.1403 49.857 24.3241 49.8858 24.4957 49.9526C24.6673 50.0194 24.8226 50.1226 24.9512 50.2552C25.0798 50.3879 25.1786 50.5468 25.241 50.7214C25.3034 50.8959 25.3279 51.0819 25.3128 51.2668C25.3104 51.7671 25.1208 52.248 24.782 52.6134C24.4432 52.9787 23.9801 53.2015 23.4854 53.2371L23.486 53.2366ZM23.9562 50.0081C23.4969 50.0444 23.068 50.2539 22.7549 50.5948C22.4418 50.9357 22.2675 51.3831 22.2665 51.8479C22.252 52.0141 22.2733 52.1814 22.3291 52.3385C22.3849 52.4956 22.4737 52.6385 22.5896 52.7576C22.7055 52.8766 22.8456 52.9688 23.0003 53.0279C23.1549 53.087 23.3205 53.1116 23.4854 53.0999C23.9443 53.0654 24.3733 52.8574 24.6867 52.5176C25.0001 52.1777 25.1747 51.731 25.1756 51.2668C25.1911 51.1001 25.1704 50.932 25.1149 50.7741C25.0595 50.6163 24.9707 50.4725 24.8547 50.3527C24.7387 50.2329 24.5982 50.1401 24.4431 50.0806C24.2879 50.0211 24.1218 49.9963 23.9562 50.0081Z" fill="#1A1818"/>
<path d="M27.4926 49.4829H28.1046L27.8293 50.5648C28.0221 50.2137 28.3049 49.9215 28.6482 49.7187C28.9915 49.5159 29.3825 49.41 29.7803 49.4121L29.6097 50.0769H29.5648C28.6651 50.0769 27.7679 50.7339 27.4441 51.99L27.01 53.6206H26.3984L27.4926 49.4829Z" fill="#1A1818"/>
<path d="M27.0614 53.6939H26.3086L27.4383 49.4126H28.1937L27.9807 50.2448C28.173 49.975 28.4239 49.753 28.7141 49.5957C29.0043 49.4384 29.3262 49.35 29.6554 49.3372C29.6956 49.3372 29.7405 49.3372 29.7838 49.3419L29.8679 49.3481L29.6616 50.1444H29.5636C28.6098 50.1444 27.8034 50.8726 27.511 52.0029L27.0614 53.6939ZM26.4865 53.5519H26.9552L27.3749 51.9696C27.6842 50.7821 28.5371 50.0118 29.5533 50.0061L29.6884 49.4797C29.3172 49.4964 28.9564 49.6082 28.64 49.8047C28.3236 50.0012 28.0621 50.2758 27.8802 50.6027L27.6616 50.9215L28.0132 49.553H27.5419L26.4865 53.5519Z" fill="#1A1818"/>
<path d="M31.2051 47.7767H31.814L30.2584 53.6222H29.6484L31.2051 47.7767Z" fill="#1A1818"/>
<path d="M30.3111 53.6944H29.5547L31.1531 47.7039H31.9012L31.8811 47.7907L30.3111 53.6944ZM29.7372 53.5529H30.2044L31.7223 47.8448H31.2583L29.7372 53.5529Z" fill="#1A1818"/>
<path d="M31.9481 51.9681C31.9211 51.3205 32.1471 50.6881 32.5776 50.2069C33.008 49.7257 33.6085 49.4341 34.2498 49.3949C34.5813 49.3789 34.9093 49.47 35.186 49.655C35.4627 49.8399 35.6737 50.109 35.7884 50.4232L36.487 47.7767H37.1001L35.5532 53.6216H34.9345L35.1222 52.9189C34.9388 53.1599 34.7046 53.3568 34.4366 53.4954C34.1685 53.634 33.8733 53.7109 33.5723 53.7204C33.3488 53.7217 33.1275 53.6762 32.9222 53.5871C32.7169 53.498 32.5321 53.367 32.3794 53.2025C32.2266 53.0379 32.1092 52.8432 32.0346 52.6307C31.9599 52.4182 31.9296 52.1924 31.9455 51.9676L31.9481 51.9681ZM35.5759 51.2206C35.5809 51.0504 35.5514 50.881 35.4891 50.7228C35.4268 50.5646 35.3331 50.4209 35.2137 50.3006C35.0943 50.1802 34.9518 50.0858 34.7949 50.023C34.638 49.9603 34.47 49.9307 34.3014 49.9359C33.8146 49.9705 33.3611 50.1975 33.0395 50.5676C32.7179 50.9378 32.5541 51.4211 32.5838 51.9124C32.5684 52.0748 32.5873 52.2387 32.6393 52.3933C32.6912 52.5478 32.7751 52.6895 32.8853 52.8089C32.9955 52.9284 33.1296 53.0229 33.2787 53.0862C33.4278 53.1495 33.5885 53.1803 33.7502 53.1764C34.2394 53.1338 34.696 52.911 35.0328 52.5505C35.3696 52.1899 35.5629 51.7168 35.5759 51.2216" fill="#1A1818"/>
<path d="M33.5761 53.7922C33.3442 53.7922 33.1147 53.7442 32.9019 53.6513C32.6891 53.5583 32.4974 53.4224 32.3387 53.2518C32.1799 53.0812 32.0576 52.8796 31.9791 52.6594C31.9006 52.4393 31.8676 52.2052 31.8823 51.9717C31.8591 51.3063 32.0937 50.658 32.5366 50.1643C32.9794 49.6706 33.5955 49.3703 34.2541 49.3273C34.5661 49.3128 34.8757 49.3894 35.1457 49.5478C35.4158 49.7061 35.6348 49.9397 35.7767 50.2204L36.4367 47.7065H37.1952L35.6107 53.695H34.8491L34.9899 53.1697C34.8074 53.3635 34.5883 53.5186 34.3455 53.6258C34.1027 53.733 33.8411 53.7901 33.5761 53.7938V53.7922ZM34.2521 49.4662C33.6302 49.5093 33.0494 49.7949 32.6327 50.2624C32.216 50.73 31.996 51.3429 32.0195 51.9712C32.0026 52.1869 32.0305 52.4037 32.1013 52.6079C32.1721 52.812 32.2843 52.9991 32.4308 53.1572C32.5772 53.3152 32.7547 53.4406 32.9519 53.5256C33.1491 53.6106 33.3617 53.6532 33.5761 53.6508C33.8674 53.6422 34.1531 53.5681 34.4123 53.4338C34.6716 53.2995 34.8978 53.1085 35.0745 52.8747L35.2719 52.6495L35.0306 53.5551H35.504L37.0126 47.8454H36.5429L35.8041 50.6433L35.7267 50.4503C35.6155 50.1501 35.4128 49.8931 35.1477 49.7164C34.8827 49.5397 34.5689 49.4523 34.2515 49.4667L34.2521 49.4662ZM33.7529 53.2471C33.5823 53.2509 33.4128 53.2182 33.2555 53.1512C33.0982 53.0842 32.9568 52.9845 32.8404 52.8585C32.724 52.7326 32.6353 52.5833 32.5801 52.4203C32.5249 52.2573 32.5045 52.0845 32.5201 51.913C32.4904 51.4038 32.6612 50.9034 32.9955 50.5207C33.3297 50.1379 33.8002 49.9038 34.3046 49.8693C34.4827 49.8627 34.6601 49.8932 34.826 49.9588C34.9919 50.0243 35.1426 50.1236 35.2687 50.2504C35.3949 50.3773 35.4939 50.529 35.5594 50.6961C35.625 50.8631 35.6558 51.0421 35.6499 51.2217C35.6387 51.7364 35.4384 52.2285 35.0879 52.6026C34.7374 52.9767 34.2617 53.2063 33.7529 53.2466V53.2471ZM34.3046 50.0082C33.837 50.0429 33.4018 50.2623 33.0936 50.6189C32.7854 50.9755 32.6292 51.4404 32.6588 51.9125C32.6443 52.0654 32.6619 52.2196 32.7105 52.3652C32.7591 52.5108 32.8376 52.6444 32.9409 52.7573C33.0441 52.8702 33.1698 52.9598 33.3097 53.0204C33.4497 53.081 33.6007 53.1111 33.7529 53.1088C34.2236 53.065 34.6622 52.8492 34.9861 52.5019C35.3101 52.1546 35.497 51.6999 35.5117 51.2232C35.5169 51.0622 35.4892 50.9017 35.4304 50.7519C35.3715 50.602 35.2828 50.466 35.1696 50.3522C35.0565 50.2384 34.9214 50.1493 34.7727 50.0904C34.6239 50.0315 34.4648 50.004 34.3052 50.0097" fill="#1A1818"/>
<path d="M40.4597 49.4843H41.0691L39.9626 53.6221H39.3594L40.4597 49.4843ZM40.8392 47.8948H41.5389L41.3563 48.5787H40.6556L40.8392 47.8948Z" fill="#1A1818"/>
<path d="M40.0138 53.6919H39.2656L40.4036 49.4126H41.1584L40.0138 53.6919ZM39.4466 53.5524H39.906L40.9775 49.5525H40.5103L39.4466 53.5524ZM41.4059 48.6485H40.5614L40.7846 47.8241H41.6261L41.4059 48.6485ZM40.7428 48.506H41.3002L41.4456 47.9625H40.8908L40.7428 48.506Z" fill="#1A1818"/>
<path d="M42.3387 49.4838H42.9533L42.7759 50.1486C42.944 49.9233 43.1598 49.7389 43.4076 49.6085C43.6555 49.4782 43.929 49.4054 44.2083 49.3954C44.3805 49.3804 44.5539 49.4029 44.7168 49.4614C44.8796 49.5199 45.0281 49.6129 45.1522 49.7344C45.2762 49.8558 45.3729 50.0028 45.4358 50.1653C45.4986 50.3277 45.5261 50.5019 45.5164 50.676C45.5046 50.8936 45.47 51.1092 45.4132 51.3194L44.8085 53.6216H44.1969L44.8219 51.2731C44.8573 51.1206 44.8765 50.9648 44.8791 50.8082C44.8854 50.6873 44.8652 50.5666 44.8201 50.4544C44.775 50.3423 44.7061 50.2415 44.6181 50.1592C44.5302 50.0769 44.4255 50.0151 44.3112 49.9781C44.197 49.9411 44.0762 49.9299 43.9572 49.9452C43.6015 49.9802 43.2662 50.1285 42.9998 50.3688C42.7334 50.6091 42.5499 50.9288 42.4758 51.2814L41.8571 53.6221H41.2461L42.3387 49.4838Z" fill="#1A1818"/>
<path d="M44.8591 53.6949H44.1089L44.7539 51.2565C44.7892 51.1097 44.8077 50.9593 44.8091 50.8082C44.8159 50.6963 44.7979 50.5844 44.7564 50.4805C44.715 50.3765 44.6511 50.2832 44.5694 50.2073C44.4878 50.1313 44.3904 50.0748 44.2843 50.0416C44.1782 50.0084 44.0662 49.9995 43.9562 50.0154C43.6156 50.05 43.2948 50.1932 43.0404 50.4244C42.7861 50.6556 42.6114 50.9625 42.5419 51.3007L41.9108 53.6934H41.1523L42.2867 49.412H43.0441L42.9137 49.902C43.0799 49.723 43.2803 49.5798 43.5027 49.4808C43.7252 49.3819 43.9653 49.3293 44.2084 49.3263C44.3897 49.3107 44.5721 49.3346 44.7435 49.3963C44.9148 49.458 45.071 49.5561 45.2015 49.684C45.332 49.8119 45.4338 49.9665 45.5 50.1375C45.5661 50.3084 45.5952 50.4917 45.5851 50.675C45.574 50.8974 45.5394 51.1179 45.4819 51.3329L44.8591 53.6949ZM44.2888 53.5535H44.7528L45.3417 51.3007C45.3982 51.097 45.4328 50.8877 45.4448 50.6765C45.4536 50.512 45.4273 50.3475 45.3677 50.1942C45.308 50.0408 45.2165 49.9021 45.0992 49.7875C44.9819 49.6729 44.8416 49.585 44.6877 49.5297C44.5339 49.4745 44.3701 49.4531 44.2073 49.4672C43.9382 49.4779 43.6748 49.5487 43.4362 49.6747C43.1976 49.8006 42.9897 49.9784 42.8275 50.1954L42.6327 50.4139L42.8636 49.552H42.3929L41.3359 53.5514H41.803L42.4084 51.2627C42.4861 50.8953 42.678 50.5626 42.9563 50.3129C43.2345 50.0632 43.5844 49.9096 43.9552 49.8745C44.0832 49.8596 44.213 49.8729 44.3354 49.9135C44.4578 49.9541 44.57 50.021 44.6644 50.1097C44.7587 50.1983 44.8328 50.3065 44.8817 50.4268C44.9305 50.5471 44.9529 50.6767 44.9472 50.8066C44.945 50.9698 44.9242 51.1323 44.8854 51.2908L44.2888 53.5535Z" fill="#1A1818"/>
<path d="M47.7344 54.6411L48.0726 54.176C48.2565 54.3069 48.4751 54.3794 48.7001 54.3841C49.0487 54.3841 49.358 54.2031 49.7695 53.6169L49.0208 49.4849H49.6607L50.2356 52.9371L52.4357 49.4849H53.1302L50.3202 53.762C49.7401 54.6182 49.2477 54.9287 48.6357 54.9287C48.3133 54.9298 47.9985 54.8299 47.7349 54.6426" fill="#1A1818"/>
<path d="M48.636 55C48.2987 55.0008 47.9695 54.8954 47.6945 54.6984L47.6367 54.6588L48.0611 54.0788L48.1168 54.1246C48.2888 54.2441 48.4917 54.3101 48.7005 54.3145C49.0469 54.3145 49.3362 54.1064 49.6956 53.6019L48.9381 49.4147H49.7167L50.2725 52.7436L52.3963 49.4147H53.2589L50.3782 53.8C49.7997 54.6531 49.2955 55 48.635 55H48.636ZM47.8347 54.6229C48.0728 54.7792 48.351 54.8618 48.635 54.8607C49.2439 54.8607 49.7152 54.5272 50.2627 53.7205L53.0006 49.5541H52.4742L50.1993 53.1259L49.6033 49.5541H49.1067L49.8441 53.6346L49.8281 53.6555C49.4295 54.2224 49.1062 54.4533 48.7025 54.4533C48.4866 54.4491 48.2756 54.388 48.0905 54.276L47.8347 54.6229Z" fill="#1A1818"/>
<path d="M53.1051 51.8588C53.1181 51.2138 53.3762 50.5984 53.8262 50.1399C54.2761 49.6814 54.8836 49.4148 55.5228 49.3954C55.7692 49.3806 56.016 49.418 56.2472 49.5052C56.4784 49.5924 56.689 49.7274 56.8654 49.9017C57.0417 50.0759 57.1801 50.2854 57.2714 50.5167C57.3627 50.7481 57.4049 50.9962 57.3955 51.245C57.3824 51.8921 57.1238 52.5094 56.6729 52.9698C56.2221 53.4303 55.6134 53.6987 54.9722 53.7199C54.7252 53.7334 54.4782 53.6946 54.247 53.6061C54.0157 53.5176 53.8054 53.3814 53.6294 53.2062C53.4534 53.0309 53.3157 52.8204 53.2251 52.5883C53.1344 52.3562 53.0929 52.1075 53.1031 51.8582L53.1051 51.8588ZM56.7639 51.2653C56.7792 51.0902 56.7569 50.9138 56.6987 50.7482C56.6404 50.5825 56.5476 50.4314 56.4263 50.3051C56.3051 50.1788 56.1583 50.0804 55.996 50.0164C55.8337 49.9524 55.6597 49.9244 55.4857 49.9342C55.0093 49.9733 54.5648 50.1914 54.2402 50.5453C53.9155 50.8992 53.7344 51.3631 53.7326 51.8453C53.7172 52.0206 53.7396 52.1971 53.7985 52.3628C53.8573 52.5285 53.9511 52.6793 54.0734 52.8049C54.1957 52.9304 54.3435 53.0277 54.5067 53.0899C54.6699 53.1521 54.8445 53.1779 55.0186 53.1654C55.4942 53.1289 55.9387 52.913 56.2636 52.5607C56.5885 52.2083 56.7699 51.7454 56.7716 51.2642" fill="#1A1818"/>
<path d="M54.9724 53.7927C54.7161 53.806 54.4599 53.7652 54.2201 53.673C53.9804 53.5809 53.7623 53.4393 53.5797 53.2573C53.3972 53.0754 53.2543 52.857 53.1601 52.6162C53.0659 52.3754 53.0225 52.1175 53.0327 51.8588C53.0464 51.1954 53.3121 50.5626 53.775 50.0911C54.2378 49.6196 54.8625 49.3454 55.52 49.3251C55.7755 49.3105 56.0312 49.3498 56.2708 49.4406C56.5104 49.5313 56.7286 49.6716 56.9113 49.8523C57.0941 50.033 57.2375 50.2502 57.3323 50.4901C57.4271 50.7299 57.4712 50.987 57.4618 51.245C57.4497 51.9107 57.1847 52.5464 56.7214 53.0207C56.2582 53.495 55.6321 53.7717 54.9724 53.7937V53.7927ZM55.52 49.4661C54.8995 49.4858 54.3102 49.745 53.8736 50.1902C53.4369 50.6354 53.1863 51.2327 53.1734 51.8588C53.1639 52.0986 53.2041 52.3377 53.2915 52.5609C53.3788 52.7841 53.5114 52.9865 53.6808 53.155C53.8501 53.3235 54.0525 53.4545 54.2749 53.5396C54.4973 53.6247 54.7349 53.662 54.9724 53.6491C55.5954 53.6297 56.1871 53.3694 56.625 52.9219C57.0629 52.4744 57.3134 51.8742 57.3246 51.2455C57.3329 51.006 57.2916 50.7675 57.2033 50.545C57.115 50.3225 56.9817 50.1211 56.8118 49.9535C56.642 49.786 56.4394 49.656 56.217 49.5719C55.9945 49.4878 55.7572 49.4514 55.52 49.4651V49.4661ZM55.0111 53.2366C54.8283 53.248 54.6453 53.2197 54.4743 53.1535C54.3033 53.0874 54.1484 52.985 54.02 52.8533C53.8916 52.7216 53.7927 52.5637 53.73 52.3901C53.6673 52.2166 53.6423 52.0315 53.6566 51.8473C53.658 51.3464 53.8466 50.8645 54.1847 50.4976C54.5229 50.1308 54.9857 49.906 55.4808 49.8682C55.6644 49.8572 55.8481 49.8861 56.0196 49.953C56.1911 50.0198 56.3464 50.123 56.4749 50.2556C56.6035 50.3882 56.7023 50.5471 56.7648 50.7216C56.8272 50.896 56.8518 51.082 56.8369 51.2669C56.8348 51.767 56.6455 52.2478 56.3069 52.6132C55.9684 52.9785 55.5056 53.2014 55.0111 53.2372V53.2366ZM55.4808 50.0081C55.0221 50.0448 54.5939 50.2546 54.2817 50.5956C53.9694 50.9365 53.7959 51.3837 53.7958 51.8479C53.7809 52.0138 53.8019 52.1809 53.8573 52.3378C53.9128 52.4947 54.0013 52.6377 54.1168 52.7567C54.2323 52.8757 54.372 52.9681 54.5263 53.0273C54.6806 53.0866 54.8459 53.1113 55.0106 53.0999C55.469 53.065 55.8975 52.8568 56.2103 52.5169C56.5231 52.1771 56.6971 51.7306 56.6976 51.2669C56.7131 51.1003 56.6925 50.9323 56.6373 50.7746C56.582 50.6169 56.4934 50.4732 56.3776 50.3534C56.2618 50.2337 56.1216 50.1407 55.9666 50.0811C55.8117 50.0215 55.6457 49.9966 55.4803 50.0081" fill="#1A1818"/>
<path d="M58.2287 52.4279C58.2379 52.2116 58.2725 51.9972 58.3318 51.7892L58.9351 49.4823H59.5435L58.9171 51.8287C58.8834 51.9803 58.8643 52.1348 58.8603 52.2901C58.8539 52.4106 58.8736 52.5311 58.918 52.6432C58.9623 52.7552 59.0303 52.8562 59.1172 52.9392C59.2042 53.0221 59.3079 53.085 59.4213 53.1234C59.5347 53.1619 59.6551 53.175 59.774 53.1618C60.1322 53.1273 60.4698 52.9771 60.7365 52.7334C61.0033 52.4897 61.1849 52.1657 61.2543 51.8095L61.8828 49.4797H62.4928L61.3951 53.6175H60.7846L60.9651 52.9413C60.7979 53.1688 60.5821 53.3554 60.3337 53.4873C60.0853 53.6192 59.8106 53.6931 59.5301 53.7033C59.3583 53.718 59.1853 53.6953 59.023 53.6366C58.8606 53.5779 58.7127 53.4846 58.5892 53.3631C58.4658 53.2416 58.3697 53.0948 58.3075 52.9325C58.2452 52.7702 58.2184 52.5964 58.2287 52.4227" fill="#1A1818"/>
<path d="M59.5295 53.7787C59.3483 53.7937 59.166 53.7692 58.995 53.707C58.8239 53.6448 58.6682 53.5462 58.5382 53.418C58.4082 53.2898 58.307 53.1349 58.2415 52.9638C58.176 52.7927 58.1477 52.6094 58.1585 52.4263C58.1658 52.2044 58.2004 51.9842 58.2616 51.7709L58.8772 49.4115H59.6311L58.9809 51.8442C58.9499 51.9911 58.9327 52.1405 58.9293 52.2905C58.9226 52.4017 58.9403 52.513 58.9809 52.6166C59.0216 52.7201 59.0844 52.8134 59.1648 52.8898C59.2451 52.9662 59.3412 53.0238 59.4461 53.0586C59.551 53.0933 59.6622 53.1044 59.7718 53.091C60.1143 53.0548 60.4363 52.9091 60.6909 52.6752C60.9454 52.4412 61.1191 52.1313 61.1867 51.7907L61.8291 49.4094H62.5793L61.445 53.6877H60.6922L60.8237 53.192C60.6577 53.3721 60.4574 53.5164 60.2347 53.6164C60.0121 53.7165 59.7717 53.77 59.528 53.774L59.5295 53.7787ZM58.9845 49.5489L58.3951 51.8021C58.3375 52.0055 58.3041 52.215 58.2956 52.4263C58.2846 52.591 58.3092 52.7561 58.3676 52.9102C58.4261 53.0643 58.5171 53.2038 58.6344 53.3189C58.7516 53.434 58.8922 53.5221 59.0465 53.5769C59.2008 53.6318 59.3651 53.6522 59.528 53.6367C59.7985 53.6255 60.0631 53.5536 60.3026 53.4262C60.5421 53.2988 60.7505 53.1191 60.9124 52.9002L61.1078 52.6765L60.8747 53.5503H61.3388L62.3989 49.551H61.9348L61.3217 51.8312C61.2451 52.2002 61.0538 52.535 60.7756 52.7867C60.4974 53.0384 60.1468 53.194 59.7749 53.231C59.6471 53.2443 59.518 53.2296 59.3964 53.1877C59.2748 53.1459 59.1636 53.0779 59.0705 52.9886C58.9774 52.8993 58.9046 52.7907 58.8571 52.6703C58.8096 52.5499 58.7885 52.4205 58.7953 52.2911C58.7996 52.13 58.8184 51.9696 58.8515 51.812L59.4558 49.5515L58.9845 49.5489Z" fill="#1A1818"/>
<path d="M63.8517 49.4828H64.4622L64.1894 50.5647C64.3818 50.213 64.6648 49.9202 65.0085 49.7173C65.3522 49.5144 65.7438 49.409 66.142 49.4121L65.9656 50.0768H65.9234C65.0252 50.0768 64.1291 50.7338 63.8017 51.9899L63.3691 53.6205H62.7539L63.8517 49.4828Z" fill="#1A1818"/>
<path d="M63.422 53.6949H62.6641L63.7984 49.4136H64.5512L64.3423 50.2427C64.5454 49.9533 64.8168 49.7197 65.1318 49.5628C65.4469 49.4058 65.7958 49.3306 66.147 49.3439L66.2315 49.3496L66.0227 50.1465H65.9268C64.9724 50.1465 64.167 50.8747 63.8721 52.005L63.422 53.6949ZM62.8466 53.5535H63.3147L63.7329 51.9711C64.0423 50.7836 64.8982 50.0133 65.9134 50.0076L66.0521 49.4812C65.6808 49.4972 65.3197 49.6089 65.0033 49.8056C64.6868 50.0022 64.4256 50.2773 64.2444 50.6047L64.0237 50.9236L64.3723 49.5551H63.9041L62.8466 53.5535Z" fill="#1A1818"/>
<path d="M69.8655 47.7767H70.4719L69.8408 50.1491C70.0083 49.9243 70.2234 49.74 70.4705 49.6097C70.7176 49.4794 70.9904 49.4064 71.269 49.396C71.4417 49.3803 71.6157 49.4022 71.7792 49.4604C71.9427 49.5185 72.092 49.6114 72.2167 49.7329C72.3414 49.8544 72.4388 50.0016 72.5021 50.1644C72.5655 50.3273 72.5933 50.5019 72.5838 50.6765C72.5737 50.8942 72.5391 51.1101 72.4807 51.32L71.8779 53.6216H71.2649L71.8836 51.2731C71.9267 51.1219 71.9485 50.9654 71.9486 50.8081C71.9539 50.6873 71.9331 50.5668 71.8875 50.4549C71.8419 50.3431 71.7727 50.2426 71.6847 50.1604C71.5967 50.0783 71.492 50.0165 71.3779 49.9793C71.2639 49.9421 71.1431 49.9305 71.0241 49.9452C70.6679 49.9803 70.332 50.1287 70.0649 50.3688C69.7977 50.609 69.613 50.9286 69.5376 51.2815L68.9189 53.6222H68.3125L69.8655 47.7767Z" fill="#1A1818"/>
<path d="M71.926 53.6944H71.1722L71.8131 51.2564C71.8546 51.1103 71.8765 50.9592 71.8781 50.8071C71.8834 50.6953 71.8642 50.5837 71.822 50.4803C71.7799 50.3768 71.7156 50.284 71.6339 50.2083C71.5522 50.1327 71.455 50.0761 71.3492 50.0426C71.2434 50.0091 71.1315 49.9994 71.0216 50.0144C70.6806 50.0488 70.3593 50.192 70.1043 50.4231C69.8493 50.6542 69.674 50.9612 69.6037 51.2996L68.9721 53.6923H68.2188L68.244 53.6039L69.812 47.7039H70.5632L69.9775 49.902C70.1432 49.7238 70.3427 49.5812 70.5641 49.4825C70.7856 49.3837 71.0244 49.3309 71.2665 49.3272C71.4484 49.311 71.6315 49.3344 71.8036 49.3958C71.9757 49.4572 72.1327 49.5551 72.2641 49.683C72.3954 49.8108 72.498 49.9657 72.5649 50.137C72.6319 50.3083 72.6615 50.4921 72.652 50.676C72.6409 50.9 72.6049 51.1222 72.5447 51.3382L71.926 53.6944ZM71.3506 53.5529H71.8203L72.4102 51.3007C72.467 51.0972 72.5008 50.8877 72.5107 50.6765C72.5209 50.511 72.4952 50.3453 72.4356 50.1907C72.376 50.0362 72.2838 49.8967 72.1654 49.7817C72.047 49.6666 71.9053 49.5789 71.75 49.5246C71.5947 49.4703 71.4296 49.4507 71.266 49.4672C70.9975 49.478 70.7347 49.549 70.4966 49.6749C70.2586 49.8009 70.0514 49.9787 69.8899 50.1954L69.6955 50.4159L70.3797 47.8427H69.9156L68.3977 53.5508H68.8617L69.4666 51.2622C69.5452 50.8943 69.738 50.5613 70.0172 50.3116C70.2963 50.062 70.6471 49.9086 71.0185 49.8739C71.1468 49.8587 71.2767 49.8718 71.3994 49.9123C71.5221 49.9527 71.6347 50.0196 71.7292 50.1082C71.8238 50.1968 71.8982 50.3051 71.9472 50.4256C71.9962 50.5461 72.0187 50.6759 72.0131 50.806C72.0123 50.9704 71.9889 51.1339 71.9435 51.2918L71.3506 53.5529Z" fill="#1A1818"/>
<path d="M73.1797 52.5621C73.1797 51.6342 73.9438 51.0662 75.0049 51.0662C75.496 51.075 75.9836 51.1502 76.4548 51.2898L76.4853 51.1899C76.5159 51.0649 76.5331 50.9369 76.5368 50.8081C76.5368 50.2838 76.1713 49.9697 75.4329 49.9697C75.0354 49.9725 74.6416 50.0472 74.2702 50.1902L74.1635 49.6701C74.597 49.4975 75.0596 49.4111 75.5257 49.4157C76.56 49.4157 77.1411 49.9047 77.1411 50.702C77.1344 50.8929 77.1082 51.0826 77.0628 51.268L76.444 53.6164H75.8366L76.0094 52.9704C75.8232 53.2004 75.5885 53.3857 75.3225 53.5127C75.0564 53.6398 74.7657 53.7054 74.4713 53.7049C74.3108 53.7219 74.1486 53.7052 73.9949 53.6557C73.8411 53.6063 73.6993 53.5253 73.5781 53.4178C73.457 53.3102 73.3593 53.1786 73.2912 53.031C73.223 52.8835 73.1859 52.7232 73.1823 52.5605L73.1797 52.5621ZM76.2801 51.9993L76.3548 51.7054C75.9227 51.5833 75.4763 51.5207 75.0276 51.5192C74.3109 51.5192 73.8077 51.9176 73.8077 52.4929C73.8077 52.9314 74.1408 53.2175 74.6698 53.2175C75.031 53.2108 75.3809 53.0895 75.6698 52.8708C75.9588 52.6521 76.1721 52.3472 76.2795 51.9993" fill="#1A1818"/>
<path d="M74.4662 53.7792C74.2963 53.7971 74.1246 53.7793 73.9619 53.7268C73.7992 53.6742 73.6491 53.5882 73.5212 53.474C73.3932 53.3599 73.2902 53.2201 73.2186 53.0636C73.1471 52.9072 73.1085 52.7374 73.1055 52.5652C73.1055 51.6289 73.8686 50.9985 75.0029 50.9985C75.4773 51.0053 75.9487 51.0752 76.4049 51.2065L76.4167 51.1732C76.445 51.0538 76.4609 50.9318 76.4642 50.8091C76.4642 50.1766 75.9037 50.0419 75.4329 50.0419C75.0433 50.043 74.6573 50.117 74.2945 50.2604L74.2192 50.2843L74.0846 49.6289L74.1408 49.6071C74.5818 49.4327 75.0521 49.3458 75.5257 49.3512C76.5796 49.3512 77.2092 49.8557 77.2092 50.7036C77.2047 50.901 77.1778 51.0974 77.1293 51.2887L76.4951 53.6913H75.7459L75.8712 53.2184C75.4941 53.5823 74.991 53.783 74.4692 53.7776L74.4662 53.7792ZM75.006 51.1363C73.9542 51.1363 73.2457 51.7084 73.2457 52.5636C73.251 52.717 73.2875 52.8678 73.3529 53.0064C73.4184 53.145 73.5114 53.2685 73.6262 53.3693C73.741 53.4701 73.8752 53.546 74.0203 53.5922C74.1654 53.6385 74.3184 53.6541 74.4698 53.6382C74.7539 53.6395 75.0348 53.5765 75.2916 53.4538C75.5484 53.3311 75.7747 53.1518 75.9537 52.9292L76.1501 52.7025L75.9253 53.5519H76.3894L76.9963 51.2549C77.0412 51.0744 77.0661 50.8895 77.0705 50.7036C77.0705 49.9327 76.5064 49.49 75.5268 49.49C75.0897 49.4855 74.6556 49.5628 74.2465 49.7179L74.3238 50.0997C74.6797 49.9684 75.0556 49.901 75.4345 49.9004C76.1898 49.9004 76.6065 50.2219 76.6065 50.8081C76.6034 50.9425 76.5861 51.0763 76.5549 51.2071L76.5033 51.3745L76.4378 51.3579C75.9732 51.2185 75.4918 51.144 75.007 51.1363H75.006ZM74.6678 53.2871C74.1032 53.2871 73.7397 52.9781 73.7397 52.4959C73.7397 51.8806 74.2676 51.4556 75.0287 51.4556C75.4842 51.4571 75.9375 51.5201 76.3765 51.643L76.442 51.6616L76.3476 52.0201C76.2363 52.3831 76.014 52.7012 75.7125 52.9291C75.4111 53.157 75.0459 53.2828 74.6693 53.2887L74.6678 53.2871ZM75.0302 51.5951C74.3527 51.5951 73.8784 51.9665 73.8784 52.4975C73.8784 52.9006 74.1836 53.1487 74.6714 53.1487C75.0177 53.1433 75.3535 53.0277 75.6307 52.8182C75.908 52.6088 76.1125 52.3163 76.2151 51.9826L76.2728 51.7589C75.8672 51.6506 75.4494 51.5954 75.0297 51.5946" fill="#1A1818"/>
<path d="M78.8134 49.4838H79.4244L79.2506 50.1486C79.4179 49.9239 79.6328 49.7397 79.8796 49.6094C80.1264 49.4791 80.399 49.406 80.6773 49.3954C80.8498 49.38 81.0235 49.4022 81.1866 49.4605C81.3498 49.5188 81.4986 49.6119 81.623 49.7334C81.7473 49.8549 81.8443 50.0019 81.9072 50.1646C81.9702 50.3272 81.9978 50.5017 81.988 50.676C81.9801 50.894 81.9455 51.11 81.8849 51.3194L81.2827 53.6216H80.6737L81.2924 51.2731C81.3326 51.1214 81.3531 50.9651 81.3533 50.8081C81.3597 50.6876 81.3397 50.5671 81.2949 50.4552C81.2501 50.3432 81.1815 50.2426 81.0939 50.1603C81.0063 50.078 80.902 50.0161 80.7881 49.979C80.6743 49.9418 80.5537 49.9303 80.435 49.9452C80.079 49.9817 79.7435 50.1305 79.4762 50.3704C79.2089 50.6103 79.0233 50.929 78.9459 51.2814L78.3272 53.6221H77.7188L78.8134 49.4838Z" fill="#1A1818"/>
<path d="M81.3315 53.6948H80.5787L81.2232 51.2564C81.2617 51.1101 81.2817 50.9595 81.283 50.8081C81.2888 50.6967 81.2703 50.5855 81.2287 50.4822C81.187 50.379 81.1234 50.2862 81.0422 50.2105C80.9611 50.1349 80.8644 50.0782 80.7591 50.0444C80.6538 50.0107 80.5424 50.0008 80.4328 50.0153C80.0917 50.0513 79.7705 50.1951 79.5152 50.4261C79.2598 50.6571 79.0833 50.9635 79.0107 51.3017L78.3807 53.6943H77.6289L78.7581 49.413H79.5119L79.3835 49.903C79.5495 49.7251 79.749 49.5825 79.9703 49.4836C80.1917 49.3848 80.4305 49.3316 80.6726 49.3272C80.854 49.3115 81.0367 49.3353 81.2082 49.3969C81.3798 49.4585 81.5363 49.5566 81.667 49.6845C81.7978 49.8123 81.8999 49.967 81.9664 50.138C82.0328 50.3091 82.0621 50.4925 82.0523 50.6759C82.0429 50.9001 82.0072 51.1223 81.9461 51.3381L81.3315 53.6948ZM80.7602 53.5534H81.2243L81.8141 51.3006C81.8732 51.0975 81.9079 50.8879 81.9173 50.6764C81.9273 50.5112 81.9018 50.3458 81.8423 50.1915C81.7829 50.0373 81.691 49.8979 81.573 49.7829C81.4549 49.6679 81.3136 49.5801 81.1587 49.5256C81.0037 49.4711 80.839 49.4512 80.6757 49.4671C80.4073 49.478 80.1446 49.549 79.9068 49.675C79.6689 49.8009 79.4618 49.9786 79.3005 50.1953L79.1072 50.4138L79.334 49.5519H78.87L77.813 53.5513H78.277L78.8788 51.2626C78.9607 50.8955 79.1552 50.5637 79.4347 50.3145C79.7143 50.0652 80.0646 49.9113 80.4359 49.8744C80.5638 49.8595 80.6935 49.8728 80.8159 49.9134C80.9382 49.9541 81.0504 50.021 81.1446 50.1096C81.2388 50.1983 81.3127 50.3065 81.3614 50.4268C81.4101 50.5471 81.4322 50.6767 81.4264 50.8065C81.425 50.9708 81.4025 51.1343 81.3593 51.2928L80.7602 53.5534Z" fill="#1A1818"/>
<path d="M82.8295 51.9681C82.8027 51.3208 83.0287 50.6888 83.4587 50.2077C83.8888 49.7266 84.4887 49.4348 85.1296 49.3949C85.4614 49.3797 85.7894 49.4711 86.0664 49.6559C86.3434 49.8406 86.5552 50.1093 86.6713 50.4232L87.3741 47.7767H87.9784L86.429 53.6216H85.8241L86.0041 52.9189C85.8205 53.159 85.5867 53.3552 85.3193 53.4938C85.052 53.6323 84.7576 53.7097 84.4572 53.7204C84.2335 53.7222 84.0119 53.6772 83.8062 53.5882C83.6006 53.4993 83.4154 53.3684 83.2624 53.2037C83.1094 53.0391 82.9919 52.8442 82.9172 52.6315C82.8425 52.4187 82.8123 52.1927 82.8285 51.9676L82.8295 51.9681ZM86.4573 51.2206C86.4629 51.0508 86.4341 50.8817 86.3724 50.7236C86.3108 50.5656 86.2177 50.4219 86.0989 50.3015C85.9801 50.1811 85.8381 50.0866 85.6817 50.0237C85.5253 49.9608 85.3577 49.9309 85.1894 49.9359C84.7029 49.9704 84.2496 50.1976 83.9283 50.5678C83.607 50.938 83.4437 51.4213 83.474 51.9124C83.4571 52.0742 83.4746 52.2377 83.5253 52.3921C83.576 52.5466 83.6587 52.6884 83.768 52.808C83.8773 52.9276 84.0106 53.0223 84.1591 53.0858C84.3075 53.1493 84.4677 53.1802 84.6289 53.1764C85.1188 53.1349 85.5764 52.9125 85.9138 52.5518C86.2511 52.1911 86.4447 51.7174 86.4573 51.2216" fill="#1A1818"/>
<path d="M84.4586 53.7922C84.2262 53.7927 83.9962 53.7451 83.7827 53.6524C83.5693 53.5597 83.3769 53.4239 83.2174 53.2533C83.058 53.0827 82.9349 52.881 82.8557 52.6606C82.7765 52.4402 82.7429 52.2057 82.757 51.9717C82.7343 51.3065 82.9692 50.6585 83.4119 50.1649C83.8546 49.6713 84.4704 49.3708 85.1288 49.3273C85.4411 49.3142 85.7506 49.3915 86.0208 49.55C86.2909 49.7085 86.5105 49.9417 86.6535 50.222L87.3182 47.7065H88.0663L86.4792 53.695H85.7311L85.8708 53.1676C85.6884 53.3617 85.4693 53.5172 85.2266 53.6249C84.9838 53.7326 84.7222 53.7904 84.457 53.7948L84.4586 53.7922ZM85.1273 49.4672C84.5054 49.5101 83.9245 49.7956 83.5077 50.2632C83.0909 50.7309 82.871 51.3439 82.8947 51.9723C82.8778 52.1883 82.9058 52.4053 82.9768 52.6098C83.0479 52.8142 83.1604 53.0014 83.3073 53.1595C83.4541 53.3176 83.632 53.443 83.8296 53.5278C84.0272 53.6125 84.2402 53.6548 84.4549 53.6518C84.7456 53.6423 85.0305 53.5678 85.2891 53.4336C85.5477 53.2993 85.7735 53.1088 85.9502 52.8758L86.141 52.6521L85.9105 53.5556H86.3694L87.8827 47.8459H87.4223L86.6814 50.6407L86.604 50.4508C86.4937 50.1496 86.2909 49.8918 86.0252 49.7149C85.7595 49.538 85.4448 49.4512 85.1268 49.4672H85.1273ZM84.6266 53.2476C84.4566 53.2507 84.2878 53.2175 84.1314 53.1502C83.975 53.0828 83.8344 52.9829 83.7189 52.8569C83.6034 52.7309 83.5157 52.5818 83.4613 52.4192C83.407 52.2566 83.3873 52.0843 83.4036 51.9135C83.3735 51.4044 83.5441 50.9039 83.8781 50.5211C84.2122 50.1383 84.6827 49.9042 85.1871 49.8699C85.3646 49.8637 85.5415 49.8946 85.7066 49.9604C85.8718 50.0263 86.0218 50.1257 86.1472 50.2526C86.2725 50.3795 86.3707 50.5311 86.4354 50.6979C86.5002 50.8647 86.5302 51.0432 86.5236 51.2222C86.5125 51.7369 86.3122 52.2291 85.9617 52.6032C85.6112 52.9774 85.1354 53.2069 84.6266 53.2471V53.2476ZM85.1871 50.0087C84.7194 50.0435 84.2842 50.263 83.976 50.6195C83.6678 50.9761 83.5114 51.4408 83.5408 51.913C83.5235 52.0657 83.539 52.2204 83.5861 52.3667C83.6332 52.5129 83.7108 52.6472 83.8137 52.7606C83.9166 52.874 84.0424 52.9637 84.1826 53.0239C84.3229 53.084 84.4743 53.1132 84.6266 53.1093C85.0974 53.0652 85.5361 52.8494 85.8603 52.5022C86.1845 52.1551 86.3719 51.7004 86.3875 51.2238C86.3931 51.0631 86.3659 50.903 86.3076 50.7534C86.2493 50.6038 86.1611 50.4679 86.0485 50.3541C85.936 50.2403 85.8014 50.151 85.6533 50.0919C85.5051 50.0328 85.3464 50.0049 85.1871 50.0102" fill="#1A1818"/>
</svg>
